<?xml version="1.0" encoding="UTF-8" standalone="no"?>
<!-- Created with Inkscape (http://www.inkscape.org/) -->

<svg
   xmlns:dc="http://purl.org/dc/elements/1.1/"
   xmlns:cc="http://creativecommons.org/ns#"
   xmlns:rdf="http://www.w3.org/1999/02/22-rdf-syntax-ns#"
   xmlns:svg="http://www.w3.org/2000/svg"
   xmlns="http://www.w3.org/2000/svg"
   xmlns:sodipodi="http://sodipodi.sourceforge.net/DTD/sodipodi-0.dtd"
   xmlns:inkscape="http://www.inkscape.org/namespaces/inkscape"
   width="100%"
   height="100%"
   viewBox="0 0 100 100"
   version="1.1"
   id="svg8"
   inkscape:version="0.92.3 (2405546, 2018-03-11)"
   sodipodi:docname="biogeochemistry.svg">
  <title
     id="title823">NEON Data Theme - Biogeochemistry</title>
  <defs
     id="defs2" />
  <sodipodi:namedview
     id="base"
     pagecolor="#ffffff"
     bordercolor="#ff0066"
     borderopacity="1"
     inkscape:pageopacity="0.0"
     inkscape:pageshadow="2"
     inkscape:zoom="4"
     inkscape:cx="56.57042"
     inkscape:cy="60.93489"
     inkscape:document-units="px"
     inkscape:current-layer="layer5"
     showgrid="false"
     units="px"
     showguides="false"
     inkscape:pagecheckerboard="true"
     borderlayer="true"
     inkscape:showpageshadow="false"
     inkscape:measure-start="178.898,174.302"
     inkscape:measure-end="143.543,289.914"
     inkscape:window-width="1521"
     inkscape:window-height="632"
     inkscape:window-x="2127"
     inkscape:window-y="117"
     inkscape:window-maximized="0" />
  <metadata
     id="metadata5">
    <rdf:RDF>
      <cc:Work
         rdf:about="">
        <dc:format>image/svg+xml</dc:format>
        <dc:type
           rdf:resource="http://purl.org/dc/dcmitype/StillImage" />
        <dc:title>NEON Data Theme - Biogeochemistry</dc:title>
      </cc:Work>
    </rdf:RDF>
  </metadata>
  <g
     inkscape:groupmode="layer"
     id="layer5"
     inkscape:label="bg"
     style="display:inline">
    <rect
       id="rect25"
       width="100"
       height="99.999985"
       x="1.4215442e-008"
       y="1.647743e-005"
       style="display:inline;fill:#00af6e;fill-opacity:1;stroke-width:1.34009624" />
    <rect
       style="display:inline;fill:#009162;fill-opacity:1;stroke:none;stroke-width:1.62154472"
       id="rect4793"
       width="100"
       height="70.571419"
       x="-1.7799334e-007"
       y="-7.1054274e-015" />
    <path
       style="display:inline;fill:#00ca7d;fill-opacity:1;stroke-width:0.21584159"
       d="M 30.437801,2.7882942 A 15.571429,15.571428 0 0 0 14.866374,18.359719 15.571429,15.571428 0 0 0 30.437801,33.931144 15.571429,15.571428 0 0 0 46.009228,18.359719 15.571429,15.571428 0 0 0 30.437801,2.7882942 Z m 0,0.3725106 A 15.198907,15.198906 0 0 1 45.636707,18.359719 15.198907,15.198906 0 0 1 30.437801,33.558623 15.198907,15.198906 0 0 1 15.238896,18.359719 15.198907,15.198906 0 0 1 30.437801,3.1608048 Z"
       id="circle4542-6"
       inkscape:connector-curvature="0" />
    <ellipse
       style="display:inline;fill:#00ca7d;fill-opacity:1;stroke-width:0.151812"
       cy="18.35973"
       cx="30.437803"
       id="circle4542"
       rx="10.952153"
       ry="10.952152" />
    <path
       style="display:inline;fill:#00ca7d;fill-opacity:1;stroke-width:0.1838268"
       d="M 30.363301,5.1724311 A 13.261791,13.26179 0 0 0 17.101508,18.434219 13.261791,13.26179 0 0 0 30.363301,31.696007 13.261791,13.26179 0 0 0 43.625091,18.434219 13.261791,13.26179 0 0 0 30.363301,5.1724311 Z m 0,0.8940525 A 12.367737,12.367737 0 0 1 42.731039,18.434219 12.367737,12.367737 0 0 1 30.363301,30.801955 12.367737,12.367737 0 0 1 17.995561,18.434219 12.367737,12.367737 0 0 1 30.363301,6.0664836 Z"
       id="circle4542-8"
       inkscape:connector-curvature="0" />
    <path
       style="display:inline;fill:#00483a;fill-opacity:1;stroke:none;stroke-width:0.28571424px;stroke-linecap:butt;stroke-linejoin:miter;stroke-opacity:1"
       d="M 100,85.999993 V 68.877547 c 0,0 -5.346265,-1.2595 -8.101368,-2.483991 C 89.143531,65.169064 85.435047,66.203348 82.551019,65.765355 77.790997,64.100689 73.571428,60.867401 68.265306,61.122498 62.959183,61.377605 51.201815,60.52341 45.188075,65.301046 39.130043,70.113874 20.204081,85.999993 20.204081,85.999993 Z"
       id="path4854"
       inkscape:connector-curvature="0"
       sodipodi:nodetypes="ccsccscc" />
    <path
       style="display:inline;fill:#ffffff;fill-opacity:1;stroke:none;stroke-width:0.30007529"
       d="m 85.105468,55.931919 c -1.875548,2.838745 -4.99286,6.205448 -8.106586,8.182476 1.553066,-0.08118 2.848103,-0.02734 3.959266,0.118302 -5.285909,11.497462 -16.90318,19.481583 -30.38672,19.481583 -5.695731,0 -11.057617,-1.426476 -15.751117,-3.938616 -0.295466,-0.156443 -0.57802,-0.281534 -0.899551,-0.281805 -0.87312,-1.2e-5 -1.580926,0.707794 -1.580917,1.580913 2.59e-4,0.638558 0.420359,1.17408 0.974331,1.459264 5.140889,2.756908 11.015611,4.323101 17.257254,4.323101 14.955614,4e-6 27.80716,-8.981604 33.474332,-21.841514 1.590593,0.644875 2.667831,1.52174 3.786828,2.305803 -1.010154,-2.424365 -2.624554,-8.222164 -2.72712,-11.389507 z"
       id="path4860"
       inkscape:connector-curvature="0" />
    <path
       style="display:inline;fill:#fffff7;fill-opacity:1;stroke:none;stroke-width:0.30154175"
       d="m 28.981025,20.748331 c -3.990646,2.923223 -7.455397,6.699242 -10.08761,11.258368 -7.51435,13.015234 -6.155391,28.712191 2.188616,40.105464 -1.360389,1.060216 -2.664479,1.557413 -3.90904,2.137277 2.617364,0.339017 8.473871,1.847177 11.281808,3.349327 -1.528076,-3.058522 -2.891379,-7.463204 -3.047433,-11.166292 -0.709683,1.392365 -1.407583,2.492334 -2.092634,3.386159 -7.349887,-10.376932 -8.461101,-24.498539 -1.686384,-36.232695 2.399858,-4.156682 5.556632,-7.601901 9.192523,-10.271203 z"
       id="path4860-9"
       inkscape:connector-curvature="0" />
    <path
       style="display:inline;fill:#ffffff;fill-opacity:1;stroke:none;stroke-width:0.30007529"
       d="m 42.372769,10.143422 c -1.367606,2.242232 -5.109461,6.95597 -7.611609,8.900667 3.399017,-0.151217 7.954837,0.391897 11.384488,1.748884 -0.978548,-1.208732 -1.695731,-2.287765 -2.231029,-3.272321 12.408618,-2.48165 25.696232,2.223838 33.621652,13.132254 3.138629,4.319948 5.0905,9.139335 5.92076,14.070309 0.04935,0.293083 0.09361,0.586791 0.135045,0.88058 0.204586,1.4662 0.313227,2.936557 0.321987,4.401785 0.0035,0.334308 0.02811,0.641968 0.18136,0.924666 0.416605,0.76732 1.376114,1.051669 2.143416,0.635045 0.561055,-0.304923 0.831232,-0.929542 0.817523,-1.552457 -0.0081,-1.55745 -0.119179,-3.120279 -0.329242,-4.679128 -0.0012,-0.0085 -8.58e-4,-0.01717 -0.0023,-0.02566 -0.0052,-0.03761 -0.01203,-0.07511 -0.01729,-0.112722 -0.04486,-0.323529 -0.09359,-0.646797 -0.14732,-0.969866 -0.649252,-3.90384 -1.944114,-7.767991 -3.938617,-11.441404 -0.774588,-1.426614 -1.634972,-2.77634 -2.563057,-4.055803 l -0.01897,0.02566 C 71.244257,16.692187 56.447822,11.592778 42.732699,14.562505 c -0.41322,-1.665866 -0.336542,-3.05293 -0.35993,-4.419083 z"
       id="path4860-6"
       inkscape:connector-curvature="0" />
    <path
       style="display:inline;fill:#00483a;fill-opacity:1;stroke:none;stroke-width:0.12028206"
       d="m 22.323424,14.386763 c -2.337262,0 -4.36809,1.309176 -5.401015,3.233901 a 4.5971954,4.5971948 0 0 0 -2.066048,-0.496084 4.5971954,4.5971948 0 0 0 -4.597218,4.597003 4.5971954,4.5971948 0 0 0 1.150434,3.033487 c -0.03005,0.01026 -0.06498,0.02028 -0.0901,0.03074 -1.3345818,0.556077 -0.973031,1.696191 -0.973031,1.696191 h 30.723242 c 0,0 0.05558,-0.917639 -0.361473,-1.251286 -0.391441,-0.31315 -1.004727,-0.993471 -7.216336,-1.16785 a 3.4294344,3.4294339 0 0 0 0.258257,-1.301387 3.4294344,3.4294339 0 0 0 -3.429583,-3.429581 3.4294344,3.4294339 0 0 0 -1.900473,0.577796 c -0.303244,-3.100139 -2.91685,-5.52294 -6.096652,-5.52294 z"
       id="path4691"
       inkscape:connector-curvature="0" />
    <path
       style="display:inline;fill:#00483a;fill-opacity:1;stroke:none;stroke-width:0.03593189"
       d="m 61.051776,9.9577551 c 0,0.1455439 0.02742,0.4494939 -0.09061,0.5499639 -0.16065,0.137694 -0.604051,-0.249956 -0.703699,-0.371181 h -0.0722 l -0.03611,0.03585 c -0.007,0.264632 -0.230328,0.489168 -0.397126,0.679419 0.04077,0.07041 0.107241,0.168102 0.108683,0.250345 0.0022,0.144118 -0.186675,0.322588 -0.232171,0.464914 -0.08376,0.263908 0.257445,0.410165 0.205092,0.602564 -0.04804,0.177023 -0.250567,0.05205 -0.329279,-0.02073 0.08081,0.07505 -0.401464,-0.496705 -0.339363,-0.406601 -0.07042,-0.102156 -0.05269,-0.193815 -0.120212,-0.246037 -0.06858,-0.05216 -0.319194,-0.03661 -0.411985,-0.03661 0.0354,0.06976 0.07485,0.13805 0.09355,0.214569 0.04946,0.205271 0.0051,0.895424 -0.05239,1.108568 -0.03762,0.14089 -0.05776,0.337954 -0.223492,0.382283 -0.43903,0.117305 -0.371152,-0.216675 -0.864702,-0.310732 3.54e-4,0.435931 0.06211,0.277839 0.103991,0.536035 0.01841,0.112295 -0.006,0.222074 0.06323,0.321486 0.08628,0.123385 0.402206,0.236005 0.364652,0.443425 -0.02783,0.15198 -0.231099,0.163427 -0.351331,0.165198 -0.643366,0.0086 -0.413026,-0.07149 -0.758176,-0.131193 l -0.396753,-0.02732 c -0.257428,-0.0676 -0.02853,-0.127661 -0.541928,-0.127661 v 0.07149 c 0.426016,0.0108 0.437941,0.305375 0.216623,0.429127 0.06028,0.398384 0.456704,0.403751 0.574396,0.464893 0.0795,0.04147 0.171857,0.147682 0.241909,0.211329 0.127807,0.116226 0.217332,0.164896 0.189173,0.360135 -0.02712,0.188469 -0.401101,0.319392 -0.57223,0.322599 -0.147672,0.0032 -0.762182,0.01436 -0.863266,-0.02073 l -0.157767,-0.08844 -0.20652,-0.08758 c -0.180161,-0.103235 -0.165342,-0.161656 -0.397126,-0.196698 0.08809,0.140901 0.295313,0.27718 0.418073,0.405209 l 0.363587,0.479179 c 0.07434,0.0974 0.237178,0.384756 0.20288,0.505615 -0.06858,0.241738 -0.349854,0.09233 -0.479096,0.03898 -0.15706,-0.06404 -0.254179,-0.0054 -0.393903,-0.06933 l -0.761412,-0.501381 c 0.178349,0.315418 0.381966,0.386959 0.484497,0.512115 l 0.114132,0.189894 0.149454,0.133731 0.257769,0.287903 0.134331,0.203835 c 0.100319,0.09319 0.246905,0.09762 0.410822,0.267461 0.260672,0.2707 0.20655,0.536758 -0.215136,0.513519 -0.204355,-0.01134 -0.208703,-0.07354 -0.361059,-0.121938 -0.08739,-0.02754 -0.155238,-0.01469 -0.243326,-0.05961 l -0.283055,-0.19849 c -0.115538,-0.06404 -0.163188,-0.03779 -0.264648,-0.0892 L 54.35666,17.801224 c -0.109761,-0.06069 -0.173273,-0.03963 -0.269663,-0.08952 l -0.271911,-0.212679 c -0.111918,-0.05615 -0.313711,-0.0086 -0.561752,-0.0676 -6.96e-4,0.190596 -0.05481,0.343354 0.07799,0.500712 0.16247,0.192389 0.33647,0.240292 0.530347,0.372964 0.170408,0.116593 0.531438,0.494556 0.633251,0.674073 0.129253,0.22743 0.01577,0.521391 -0.233959,0.612953 -0.06564,0.02387 -0.177977,0.02192 -0.249466,0.02073 -0.381259,-0.0065 -0.152346,-0.141635 -0.613752,-0.14306 0.09781,0.343656 0.266449,0.334715 0.370792,0.472765 l 0.20684,0.457042 h 0.722107 c 0.107954,0 0.258499,-0.01101 0.345504,0.0622 0.147673,0.124443 0.09387,0.343343 -0.09427,0.430974 -0.444798,0.207053 -0.46249,0.147671 -0.937254,0.150533 -0.342269,0.0022 -0.237217,0.08434 -0.469377,0.136949 h -0.685929 c -0.426755,0.0065 -0.299301,-0.06414 -0.541563,-0.122338 l -0.433247,-0.027 -0.32494,-0.125523 h -0.505506 c 0.04836,0.221383 0.102576,0.193522 0.159607,0.352305 0.03721,0.103667 0.01026,0.210941 0.134654,0.264578 0.262837,0.113386 0.463956,-0.158772 0.861104,-0.115502 l 0.715919,0.177368 c 0.22529,0.11088 0.197829,0.240691 0.511574,0.250723 h 0.469366 c 0.05524,-0.0054 0.126735,-0.0054 0.179815,0 0.393165,0.118731 0.01578,0.4892 -0.324262,0.498843 H 53.18106 l -0.513053,0.104099 c 0.007,0.08682 0.01264,0.242451 0,0.321843 -0.07979,0.279286 -0.444462,0.680499 -0.750621,0.692301 -0.147296,0.0065 -0.209753,-0.08401 -0.331058,-0.11047 l -0.35488,-0.02073 -0.288871,-0.126593 h -0.469308 c 0.08526,0.158406 0.150513,0.154821 0.144374,0.35222 l 0.794306,0.525365 0.902613,0.05475 c 0.193519,0.03358 0.297457,0.168081 0.448368,0.244633 0.105071,0.05324 0.282709,0.0365 0.319175,0.17983 0.02742,0.109422 -0.09963,0.190963 -0.174731,0.248185 -0.04228,0.03218 -0.06827,0.05378 -0.115194,0.07473 0.003,-0.0065 -0.470235,0.158707 -0.460061,0.163275 l -0.234181,0.04708 c 0.115174,0.2135 0.252702,0.177368 0.469314,0.178804 0.33722,0.0032 0.406192,0.104423 0.396442,0.429106 -0.0092,0.314338 -0.149454,0.356183 -0.43251,0.361193 h -0.469366 c -0.05524,-0.0043 -0.159941,-0.0065 -0.210483,0 -0.05856,0.02117 -0.413037,0.0032 -0.569004,0.01188 -0.141886,0.0076 -0.222064,-0.08477 -0.36106,-0.113721 l -0.433235,-0.01868 c -0.227103,-0.03931 -0.15271,-0.132651 -0.505445,-0.135167 -0.612763,0 -0.809063,0.252019 -0.809063,0.252019 v 0.07149 c 0.297852,0.02386 0.228518,0.12981 0.434673,0.239233 0.102177,0.05399 0.211576,0.04676 0.323503,0.05443 h 0.902559 l 0.252742,0.11587 0.215199,0.04546 0.192084,0.09913 c 0.129607,0.0433 0.361353,-0.01674 0.483386,0.08444 0.133946,0.111561 -0.04006,0.349358 -0.120952,0.449505 -0.236478,0.29395 -0.395296,0.325406 -0.733587,0.43877 -0.110847,0.03726 -0.161065,0.0892 -0.288872,0.110525 -0.461042,0.07667 -0.531419,-0.132694 -0.902563,-0.135221 -0.73399,-0.0054 -0.25276,-0.142985 -1.047046,-0.142985 0.007,0.09686 0.02891,0.299641 0.06928,0.382974 0.112644,0.234234 0.282357,0.224947 0.219545,0.546779 l 0.360675,0.0203 0.325254,0.158406 c 0.02853,-0.168416 0.113736,-0.350794 0.323514,-0.330417 0.212283,0.0203 0.269341,0.397681 0.469,0.421633 0.133574,0.01652 0.19133,-0.153395 0.435038,-0.121593 0.180162,0.02365 0.227122,0.164496 0.394641,0.125891 0.156682,-0.03628 0.297479,-0.324705 0.49713,-0.201687 0.163199,0.100536 0.119522,0.606496 0.119157,0.785645 -3.53e-4,0.137694 0.01195,0.274286 -0.08779,0.385145 -0.09821,0.109779 -0.208684,0.113332 -0.345513,0.115502 h -0.866494 c -0.289913,0.0065 -0.337572,0.08812 -0.32494,0.357608 0.14731,0.04104 0.570441,0.286424 0.670453,0.401224 0.197487,0.227063 0.01306,0.380912 -0.237195,0.385544 h -0.144452 -1.01092 c -0.377646,-0.0022 -0.287728,-0.08509 -0.505433,-0.132316 l -0.288822,-0.02624 -0.252742,-0.107987 -0.361059,-0.05551 c 0.02307,0.283227 0.164644,0.301444 0.356357,0.471307 0.152001,0.134443 0.323159,0.367262 0.365771,0.56572 0.171481,0.101831 0.143657,0.212776 0.144365,0.393351 0.361404,-0.04352 0.237925,0.01868 0.439386,0.08769 l 0.209058,0.04028 0.390675,0.209213 c 0.205801,0.183815 0.04118,0.446989 -0.177277,0.531002 -0.08446,0.0325 -0.166082,0.01825 -0.24804,0.03661 -0.134301,0.0297 -0.177987,0.0987 -0.32493,0.128406 -0.253804,0.03963 -0.775906,0.0054 -1.047038,0 -0.427117,0.0032 -0.298945,-0.06598 -0.541563,-0.131646 -0.09205,-0.01469 -0.359916,-0.0076 -0.469316,0 -0.05056,0.0933 -0.124226,0.203144 -0.251314,0.217452 -0.07402,0.0032 -0.437952,-0.246749 -0.558548,0 -0.01943,0.04395 -0.01688,0.08952 -0.02053,0.132694 0.121313,0 0.322777,-0.01469 0.427128,0.0419 0.09274,0.05075 0.145517,0.146257 0.259233,0.208479 l 0.176906,0.07019 0.46466,0.337954 c 0.223127,0.208144 0.01026,0.259967 0.441188,0.378687 0.03893,-0.05831 0.06859,-0.10871 0.122013,-0.157012 0.163552,-0.148028 0.354565,-0.165187 0.407271,0.08563 0.05299,0.252473 -0.100741,0.719147 0.158506,0.863968 0.0791,0.04395 0.344046,0.164485 0.423829,0.131592 0.159224,-0.0662 0.08019,-0.237797 0.440863,-0.244589 0.0885,-9.18e-4 0.278362,-0.0108 0.349852,0.03661 0.188819,0.124779 0.03094,0.433069 -0.05128,0.570039 -0.171865,0.284998 -0.3603,0.3844 -0.622056,0.556779 -0.176547,0.116571 -0.17585,0.169862 -0.398613,0.195606 v 0.355459 h 0.722136 c 0.105773,-0.0054 0.264993,-0.01177 0.349844,0.05928 0.0624,0.05237 0.07505,0.116561 0.08122,0.19308 0.02236,0.268919 -0.0877,0.368331 -0.284158,0.529965 -0.07041,0.05756 -0.360321,0.245356 -0.437211,0.271813 -0.107242,0.03704 -0.199652,0.0022 -0.308322,0.05183 l -0.267885,0.175543 c -0.235383,0.141959 -0.667954,0.358677 -0.938729,0.36547 l 0.175103,0.218186 c 0.08881,0.151279 0.113767,0.328603 0.330392,0.423361 0.07838,0.03175 0.295304,0.0032 0.397117,0 0.01841,-0.107986 0.03865,-0.214169 0.18124,-0.203079 0.109399,0.0086 0.262828,0.105395 0.360324,0.153049 0.142604,0.06965 0.174362,0.03769 0.288809,0.08682 l 0.407283,0.233456 0.167485,0.04373 c 0.05452,0.02138 0.337949,0.192723 0.361062,0.235292 0.107241,0.197745 -0.202162,0.237818 -0.322029,0.2396 H 49.89553 c 0.154168,0.112274 0.226001,0.04071 0.39099,0.129444 0.340465,0.183447 0.662159,0.398373 0.958576,0.645467 0.222034,0.185597 0.161762,0.341518 -0.122012,0.367629 H 50.90656 c -0.457428,9.18e-4 -0.323513,-0.10872 -0.544828,-0.136603 -0.215544,-0.0271 -0.305784,0.08985 -0.46609,0.09438 -0.155965,0.0054 -0.225998,-0.09201 -0.505435,-0.09881 -0.38595,-0.0097 -0.306157,0.09395 -0.541552,0.134854 l -0.685998,0.02721 c -0.320603,0.09125 -0.353444,0.262137 -0.722059,0.266792 0.102166,0.1509 0.170047,0.08574 0.324942,0.117975 0.113363,0.02322 0.158463,0.07397 0.288808,0.09157 0.143698,0.01922 0.292079,-0.01512 0.433249,0.0297 l 0.494966,0.192723 c 0.201823,0.135145 0.233241,0.254632 0.340111,0.319014 l 0.49464,0.218122 0.27977,0.194861 c 0.19605,0.118375 0.763992,-0.06803 0.682399,0.409474 -0.07008,0.409831 -0.473686,0.178804 -0.631087,0.191676 -0.153804,0.01253 -0.201503,0.110136 -0.397179,0.05075 -0.125643,-0.03823 -0.356681,-0.16198 -0.48376,-0.06296 -0.09103,0.07116 -0.05776,0.518519 -0.05776,0.642951 l 0.216623,0.08812 0.216624,0.03898 c 0.182335,0.05658 0.135749,0.119066 0.433246,0.123353 0.159943,0.0022 0.597206,-0.02527 0.718145,0.0419 0.21194,0.118019 0.154164,0.349012 0.04978,0.515312 -0.287385,0.455238 -0.552771,0.474568 -0.692494,0.572177 -0.08233,0.05767 -0.133967,0.144443 -0.223126,0.19308 l -0.249464,0.08833 -0.434674,0.218845 -0.395702,0.03542 c -0.220962,0.06695 -0.49285,0.245701 -0.722117,0.262504 -0.321683,0.02365 -0.41048,-0.150188 -0.613742,-0.185596 l -0.613759,0.05702 -0.288863,0.116928 -0.288809,0.03553 -0.216624,0.0974 c -0.201826,0.06944 -0.313401,-0.01253 -0.36106,0.276067 0.279444,-0.04967 0.710536,-0.116193 0.83979,0.214569 0.03358,0.08563 0.02669,0.228165 0.02669,0.321865 0.317357,0.01857 0.264669,0.132683 0.46974,0.165921 0.18955,0.03067 0.201828,-0.08769 0.329282,-0.139789 0.04552,-0.01857 0.262816,-0.04622 0.320215,-0.05043 0.162824,-0.01209 0.441916,0.01706 0.555998,0.139799 0.164999,0.177012 0.193905,0.469201 0.454933,0.477052 0.267883,0.0086 0.286301,-0.172346 0.64987,-0.191676 l 0.433244,0.04287 c 0.08082,0.01857 0.173263,0.07537 0.252694,0.06144 0.157049,-0.02721 0.188485,-0.201697 0.469365,-0.216351 h 0.144427 c 0.443007,0.04967 0.09597,0.376981 -0.05704,0.515355 -0.217704,0.197021 -0.407948,0.43877 -0.70112,0.533896 -0.09205,0.03013 -0.292461,0.0203 -0.397165,0.02073 -0.07181,0 -0.209726,-0.0086 -0.267126,0.03661 -0.101043,0.07937 -0.04187,0.411936 -0.04876,0.535677 -0.02093,0.374778 -0.38595,0.570407 -0.731108,0.580417 -0.139358,-0.0076 -0.337948,-0.01609 -0.469366,0 -0.249475,0.05507 -0.236114,0.130545 -0.541554,0.140922 h -0.397129 c -0.25814,0.05356 -0.176913,0.136193 -0.649869,0.136906 -0.270777,3.67e-4 -0.411582,-0.04147 -0.655998,0.08509 -0.292807,0.151991 -0.514841,-0.08877 -0.643741,0.272504 l 0.0361,0.03574 c 0.28234,-0.05 0.427807,-0.06036 0.638291,0.164485 0.06858,0.07311 0.110511,0.183081 0.196787,0.232787 0.09597,0.03866 0.201816,-0.01674 0.320228,0 0.102544,0.02862 0.160325,0.08876 0.25275,0.118385 l 0.252694,0.03164 c 0.14658,0.03402 0.371162,0.219958 0.475505,0.254989 0.09316,0.03132 0.418074,0.01965 0.535424,0.01998 0.192783,3.24e-4 0.392078,0.0108 0.478722,0.217788 0.06282,0.150209 0.02418,0.466674 0.216257,0.552512 0.179797,0.08056 0.278757,-0.325816 0.563978,-0.188846 0.131063,0.06296 0.382686,0.53747 0.324202,0.660132 -0.03103,0.06468 -0.110129,0.09157 -0.175112,0.105179 l -0.613753,0.104747 c -0.140804,0 -0.202575,-0.09179 -0.613801,-0.09255 h -1.046987 c -0.07071,0 -0.176581,-0.0054 -0.242648,0.01857 -0.04593,0.01577 -0.08435,0.0433 -0.123065,0.07192 -0.06211,0.04579 -0.145893,0.10979 -0.149137,0.193814 -0.003,0.07905 0.0809,0.16198 0.130365,0.217765 0.170409,0.192389 0.491001,0.317578 0.662504,0.479201 0.05167,0.0487 0.155603,0.199905 0.149829,0.272137 -0.01026,0.117662 -0.148421,0.162336 -0.247352,0.173081 -0.107943,0.01209 -0.219154,-0.0086 -0.324931,0.02397 -0.342631,0.103667 -0.420231,0.265333 -0.830374,0.266046 -0.189901,3.56e-4 -0.393902,-0.01393 -0.577683,0.03272 l -0.252693,0.06695 -0.466129,0.0446 c -0.153447,0.0325 -0.16424,0.09244 -0.292422,0.134108 -0.08881,0.01544 -0.361401,0.0065 -0.468988,0 -0.410145,0.0108 -0.524593,0.247106 -0.541566,0.615448 l 0.288821,-0.04589 c 0.0895,-0.0022 0.136465,0.03391 0.216612,0.05734 0.213023,0.06263 0.330029,-3.56e-4 0.39718,0.310354 h 1.155314 c 0.177986,3.45e-4 0.364285,-0.0097 0.485225,0.147682 0.09455,0.123029 0.0617,0.281445 0.05635,0.416979 0.116621,0.0076 0.448042,0.01577 0.541561,0 0.228175,-0.06512 0.109381,-0.1348 0.505436,-0.135512 l 0.469363,0.03164 c 0.10005,-0.01469 0.161399,-0.08984 0.252745,-0.117284 0.146215,-0.04395 0.28086,0.05237 0.24656,0.20309 -0.02782,0.12088 -0.249464,0.42984 -0.359569,0.490258 l -0.645179,0.18064 h -0.354909 c -0.103969,0.03164 -0.145831,0.09611 -0.259206,0.133709 -0.08526,0.01469 -0.331837,0.0076 -0.432922,0 -0.471508,0.0086 -0.445486,0.135199 -0.794255,0.149151 -0.421332,0.01685 -0.324951,-0.139486 -0.794305,-0.141635 -0.428908,-0.0022 -0.209757,-0.0022 -0.541554,-0.122997 L 43.64972,56.19734 43.469155,56.10933 c -0.119504,-0.03855 -0.246207,-0.0032 -0.35957,-0.04147 -0.10723,-0.03661 -0.125614,-0.09665 -0.257396,-0.117662 -0.140804,-0.02289 -0.415941,-0.02646 -0.423517,0.174183 -0.003,0.08412 0.08445,0.148027 0.101799,0.286067 0.220952,0.08769 0.295335,0.106582 0.32494,0.357618 0.273305,-0.06458 0.431447,0.07581 0.665052,0.201309 l 0.231429,0.101831 c 0.237199,0.13873 0.562473,0.52814 0.736493,0.749502 0.1112,0.141603 0.0787,0.150565 0.113708,0.306109 0.03974,0.175608 0.128193,0.331151 -0.05957,0.47418 -0.257415,0.195973 -0.456338,-0.130491 -0.676207,-0.203069 -0.103257,-0.03391 -0.515196,-0.02073 -0.649869,-0.02073 v 0.07149 c 0.240816,0.0065 0.352338,0.07257 0.469315,0.286056 0.411591,0.0473 0.194997,0.27827 0.6138,0.286121 0.120951,0.0022 0.362092,-0.01782 0.461022,0.0419 0.171846,0.103991 0.116611,0.560719 0.116611,0.744869 0.16427,-0.08196 0.304346,-0.224547 0.541553,-0.322891 0.145862,-0.06069 0.184144,-0.0032 0.361058,-0.0865 0.13503,-0.06382 0.383432,-0.152693 0.458897,0.05658 0.04046,0.113008 -0.103289,0.291078 -0.153103,0.388698 -0.0624,0.121603 -0.05269,0.190963 -0.05299,0.321842 l 0.64987,-0.250669 c 0.179078,-0.05443 0.270403,-0.0108 0.390988,-0.09179 0.144062,-0.09773 0.193491,-0.252116 0.253067,-0.32397 0.06787,-0.08185 0.247331,-0.194873 0.34445,-0.09816 0.09346,0.09244 -0.01882,0.252818 -0.07546,0.335406 l -0.660338,0.715194 c 0.737968,0 0.444121,-0.295353 1.155355,-0.286067 0.315564,0.0054 0.445536,0.15022 0.406543,0.464915 -0.006,0.05075 -0.01586,0.128352 -0.0357,0.174128 -0.02992,0.069 -0.278393,0.301854 -0.345189,0.354412 l -0.685027,0.261824 -0.285584,0.03531 -0.223137,0.103667 -0.213396,0.04417 -0.216623,0.09773 c 0,0 -0.206361,0.04395 -0.314827,0.04395 0,0 -0.420842,0.147607 -0.582514,0.309273 -0.01962,0.07321 0.148731,0.256036 0.148731,0.256036 0.274033,-0.0086 0.184855,-0.05356 0.362485,-0.117295 l 0.27728,-0.04546 0.157767,-0.08941 0.177268,-0.06468 c 0.106518,-0.04071 0.28886,-0.127348 0.346624,0.03628 0.05128,0.144831 -0.130689,0.242807 -0.16607,0.459504 l 0.361009,-0.03585 c 0.05988,-0.119433 0.124581,-0.197777 0.252742,-0.252861 0.131783,-0.05648 0.655636,-0.02073 0.791029,0.02235 0.04945,0.01555 0.174759,0.08671 0.215187,0.11979 0.08052,0.06544 0.103603,0.12873 0.149089,0.218122 l 0.469376,-0.224558 0.170398,-0.04363 c 0.0791,-0.02926 0.141524,-0.09287 0.227093,-0.106151 0.108476,-0.01641 0.210057,0.06522 0.274589,0.162142 -0.006,0.07527 0.01364,0.124033 0.06413,0.14075 l 0.83635,0.299565 c 0.368392,0.160338 0.727965,0.172195 1.195237,0.480216 0.332503,0.21958 0.422616,0.477041 0.720844,0.541801 0.45132,0.09805 0.461718,-0.268498 0.736814,-0.434354 0.191367,-0.11533 0.408233,-0.06803 0.616341,-0.138245 0.352451,-0.120059 0.519888,-0.439904 1.116332,-0.318279 0.18898,0.0378 0.92895,0.263789 0.979988,0.438339 0.09568,0.232203 -0.543019,0.77084 0,0.943013 h 0.216098 0.318953 c 0.93693,-0.01587 0.980825,-0.721879 1.385095,-0.958833 0.226456,-0.131895 0.385891,0.07818 0.608361,0.101723 0.292633,0.03142 0.33733,-0.190305 1.116383,-0.158708 0.687344,0.02764 0.516693,0.411483 0.960841,0.457312 0.484811,0.05054 0.74872,-0.408383 1.109132,-0.318355 0.118018,0.03013 0.193755,0.09816 0.271098,0.187227 0.239222,0.280387 0.319764,0.777935 0.843647,0.670499 0.181009,-0.03639 0.244834,-0.128687 0.30304,-0.292201 l 0.180192,-0.535505 c 0.428201,0.342771 0.509551,0.389389 0.903462,0 l 0.603586,-0.611279 c 0.100427,-0.10898 0.301436,-0.390166 0.46091,-0.372002 0.09963,0.01188 0.306188,0.188738 0.424995,0.247181 0.232835,0.113753 0.381174,0.07278 0.614812,0.227527 0.183396,0.122403 0.361968,0.379832 0.658589,0.387715 0.346068,0.0097 0.401879,-0.31748 0.578904,-0.464374 0.159478,-0.110568 0.909855,-0.08142 1.096431,0 0.509539,0.178501 0.558129,0.818267 1.040553,0.87591 0.728802,0.08682 0.252812,-0.60102 0.590102,-0.860069 0.336501,-0.257494 0.899436,0.05842 1.240723,0.16184 0.06939,-0.162693 0.181788,-0.63021 0.343652,-0.683911 0.22885,-0.07656 0.412258,0.253509 0.700118,0.40199 0.630724,0.326973 0.917783,0.133482 1.507846,0.05929 0.350842,-0.04341 0.741558,-0.02441 0.807728,-0.485756 0.05422,-0.38225 -0.154096,-0.166018 -0.403679,-0.304241 L 74.36812,61.866741 74.157634,61.757685 C 73.917545,61.621806 73.837772,61.528117 73.543883,61.51883 h -0.360685 c -0.16066,-0.04395 -0.646287,-0.404842 -0.738351,-0.541088 -0.102155,-0.151624 -0.0081,-0.277104 -0.139673,-0.407271 -0.110835,-0.109445 -0.485266,-0.155944 -0.557472,-0.405209 -0.05018,-0.173793 0.07364,-0.226739 0.197475,-0.297902 0.205426,-0.118364 0.336866,-0.179862 0.587777,-0.160565 0.257061,0.01998 0.277989,0.07905 0.430709,0.25109 0.06604,0.07397 0.126373,0.123385 0.179453,0.210649 0.04047,0.06695 0.05877,0.138363 0.11227,0.201287 0.0614,0.07224 0.174769,0.11155 0.267559,0.186655 0.307605,0.247462 0.537216,0.466339 0.959619,0.470983 h 0.613437 c 0.236841,0.04622 0.09568,0.138417 0.505809,0.13913 0.550586,9.17e-4 0.587059,-0.09946 1.119234,0.10723 0.105428,-0.19525 0.283777,-0.468812 0.541554,-0.463813 0.0791,0.0022 0.129983,0.05583 0.324942,0.07041 v -0.250292 c -0.246591,-0.0086 -0.188466,-0.0812 -0.362487,-0.193447 -0.09711,-0.06263 -0.157423,-0.04795 -0.248037,-0.09146 l -0.257457,-0.178102 c -0.162097,-0.0974 -0.193471,-0.0514 -0.323453,-0.107987 l -0.324939,-0.198846 -0.246604,-0.105395 c -0.27547,-0.164139 -0.709829,-0.535008 -0.815615,-0.842554 -0.06927,-0.202042 0.04663,-0.31572 0.153101,-0.466631 0.128527,-0.182022 0.376181,-0.528572 0.55092,-0.655532 l 0.167546,-0.08714 c 0.105784,-0.05658 0.165386,-0.121247 0.298977,-0.09535 0.234668,0.04503 0.379042,0.26353 0.685929,0.269254 0.116265,0.0022 0.439417,0.01782 0.528231,-0.03661 0.146945,-0.09049 0.18522,-0.323981 0.256345,-0.416957 0.04228,-0.05475 0.100654,-0.09319 0.15448,-0.135545 0.173666,-0.136581 0.204008,-0.178091 0.298964,-0.37657 0.0263,-0.06576 0.07374,-0.154831 0,-0.213824 -0.04147,-0.03747 -0.135008,-0.03531 -0.19096,-0.03661 h -0.144456 c -0.231787,-0.0054 -0.175116,-0.02829 -0.340113,-0.10979 l -0.237559,-0.08574 c -0.162835,-0.08337 -0.369344,-0.248952 -0.541555,-0.29436 -0.09935,-0.02613 -0.294617,0.0243 -0.433257,0.02505 -0.615569,0.0043 -0.362099,-0.04395 -0.722056,-0.09665 -0.104725,-0.01544 -0.232878,-0.0022 -0.324941,-0.03142 l -0.469355,-0.230994 c -0.174386,-0.07505 -0.121677,0.0108 -0.395701,-0.182357 -0.218434,-0.153773 -0.469691,-0.350859 -0.469691,-0.638719 0,-0.337576 0.243691,-0.465972 0.476569,-0.64442 L 74.4988,54.215153 c 0.183407,-0.117673 0.36649,0.0097 0.380932,-0.415208 h -1.047037 c -0.396792,-6.81e-4 -0.414119,-0.114066 -0.758185,-0.25352 l -0.179079,-0.05237 -0.161031,-0.08984 -0.16569,-0.05324 -0.18019,-0.08877 -0.249466,-0.06933 -0.29241,-0.202053 c -0.09711,-0.05237 -0.141533,-0.05248 -0.241911,-0.124088 l -0.501832,-0.420899 -0.189183,-0.129789 c -0.176186,-0.133752 -0.276926,-0.294327 -0.392091,-0.476706 -0.06239,-0.09913 -0.251317,-0.28395 -0.215573,-0.394453 0.02882,-0.08952 0.156687,-0.126247 0.241162,-0.126247 0.179443,-3.45e-4 0.216675,0.114088 0.397544,0.117662 0.196767,0.0043 0.281952,-0.124789 0.505079,-0.09838 0.187373,0.02214 0.489938,0.207011 0.556736,0.389411 0.02498,0.06868 0.01659,0.142347 0.02882,0.213143 0.0108,0.0622 0.126017,0.406224 0.163207,0.443425 0.06028,0.06101 0.246201,0.07732 0.334288,0.09298 l 0.206528,-0.412314 c 0.221681,-0.231016 0.583449,0.254621 0.748082,0.342597 0.216623,0.115503 0.303255,-0.09848 0.561763,0.212734 h 0.0722 c 0.171846,-0.198846 0.154902,-0.125113 0.361046,-0.210963 0.192441,-0.08013 0.311602,-0.154507 0.54014,-0.09989 0.153072,0.03661 0.141129,0.123742 0.398552,0.1509 0.213367,0.02279 0.435776,-0.01317 0.437576,-0.269307 0.003,-0.405867 -0.546214,-0.369724 -0.690277,-0.446978 l -0.303984,-0.201298 c -0.105427,-0.0487 -0.180533,-0.01404 -0.306531,-0.07149 l -0.726769,-0.459158 c -0.176188,-0.11371 -0.482698,-0.306466 -0.635053,-0.443414 -0.05018,-0.04546 -0.166122,-0.181342 -0.191033,-0.240346 -0.05635,-0.109066 -0.05664,-0.494556 0,-0.600059 0.04915,-0.08045 0.141552,-0.128364 0.213769,-0.183437 l -0.613801,-0.288972 c -0.132147,-0.05108 -0.209372,-0.01749 -0.323453,-0.05864 L 71.86786,48.96688 C 71.78229,48.92617 71.726013,48.93405 71.640454,48.87444 L 71.26495,48.541856 c -0.09963,-0.112284 -0.297862,-0.391213 -0.314833,-0.535008 -0.01558,-0.13088 0.02669,-0.27177 0.176164,-0.291067 0.220589,-0.02862 0.494662,0.209904 0.630774,0.357241 0.233604,0.252116 0.322371,0.241749 0.55452,0.400155 0.10507,0.07149 0.136132,0.15347 0.226038,0.185272 0.161744,0.05756 0.384497,-0.115902 0.536851,-0.160598 0.08738,-0.02613 0.454212,0.07106 0.538326,0.117652 0.06927,0.03834 0.09935,0.08401 0.147663,0.142337 l 0.824235,-0.04622 0.403267,-0.26501 h 1.155354 0.36106 l -0.36106,-0.404118 c -0.251994,-0.0086 -0.20759,-0.09654 -0.397492,-0.199159 -0.131781,-0.07116 -0.202917,-0.03218 -0.321338,-0.08574 -0.08446,-0.03823 -0.274397,-0.189872 -0.400404,-0.230648 -0.163188,-0.0528 -0.416618,0.03423 -0.546954,-0.138039 -0.110117,-0.145544 -0.111191,-0.561055 0.08162,-0.642941 0.200744,-0.08542 0.502208,-0.01782 0.687416,0.08077 0.006,-0.05475 0.02134,-0.07613 0,-0.136938 -0.02235,-0.110837 -0.383798,-0.45918 0.03073,-0.53963 h 0.144386 0.144434 l -0.03682,-0.278227 -0.32419,-0.225292 c -0.05128,0.02797 -0.123156,0.07289 -0.180556,0.0825 -0.09456,0.01566 -0.166464,-0.03661 -0.252742,-0.06414 -0.246958,-0.07872 -0.344421,-0.161235 -0.613751,-0.167671 h -1.155307 l -0.541564,-0.17131 c -0.08161,-0.03402 -0.118057,-0.07505 -0.216613,-0.09773 l -0.361061,-0.019 -0.429958,-0.160187 -0.157818,-0.08542 -0.23323,-0.07267 c -0.10722,-0.05594 -0.370762,-0.310385 -0.39459,-0.426589 -0.03105,-0.150577 0.05845,-0.233143 0.169298,-0.314306 0.220598,-0.161656 0.463227,-0.224266 0.72137,-0.291866 -0.08233,-0.218478 -0.163217,-0.202032 -0.361059,-0.272115 -0.287021,-0.101831 -0.238643,-0.08412 -0.541553,-0.09298 -0.06575,0.0076 -0.153074,0.0086 -0.216252,0 -0.09678,-0.03326 -0.122405,-0.07084 -0.19606,-0.104747 -0.172937,-0.0798 -0.371112,-0.113721 -0.515163,-0.259978 -0.24912,-0.253185 0.08628,-0.878275 0.384484,-0.856473 0.17221,0.01253 0.204366,0.258509 0.506911,0.477722 0.05411,-0.253877 -0.113383,-0.243121 -0.04481,-0.427659 0.06969,-0.187713 0.244064,-0.169507 0.405807,-0.186309 0.16066,-0.01695 0.26825,-0.06836 0.433246,-0.03758 0.317711,0.05993 0.332881,0.168459 0.541555,0.184549 0.336125,0.0257 0.3762,-0.136603 0.604009,-0.305407 0.220597,-0.163427 0.271901,-0.09665 0.349165,-0.158082 0.07008,-0.05583 0.03651,-0.133352 0.132845,-0.275333 l 0.539762,-0.717343 c 0.115528,-0.144475 0.30722,-0.128742 0.432136,-0.472765 l -0.0361,-0.03574 -0.722107,0.03542 -0.288824,-0.02797 -0.397125,0.02289 c -0.107944,-0.01458 -0.222774,-0.08952 -0.323506,-0.137651 -0.163187,-0.07872 -0.502541,-0.276769 -0.442602,-0.496705 0.02742,-0.100212 0.131035,-0.127673 0.209371,-0.176709 l 0.310124,-0.216319 c 0.09861,-0.04687 0.160336,-0.03067 0.240482,-0.06058 l 0.373317,-0.230627 c 0.149838,-0.06911 0.290978,-7.13e-4 0.463187,-0.06771 0.350934,-0.135891 0.439406,-0.276424 0.583812,-0.354747 L 74.48253,38.38704 c -0.107587,-0.110859 -0.264281,-0.247807 -0.427116,-0.261381 -0.08628,-0.0076 -0.125977,0.03931 -0.224179,0.02451 l -0.251316,-0.08121 h -0.577632 c -0.226364,-0.0043 -0.588878,0.07289 -0.722108,-0.146969 -0.259224,-0.0784 -0.445122,-0.398719 -0.217309,-0.617564 0.216268,-0.207399 0.337905,-0.169129 0.613374,-0.169129 v -0.178113 c -0.02993,-0.319348 -0.291347,-0.107554 -0.576559,-0.217765 l -0.180502,-0.08023 -0.323514,-0.05626 -0.161035,-0.08153 -0.201443,-0.05237 c -0.228184,-0.06836 -0.183437,-0.116604 -0.469375,-0.120535 -0.375118,-0.0054 -0.332839,0.04104 -0.685937,-0.114466 -0.201464,-0.08877 -0.665793,-0.189872 -0.690704,-0.457355 -0.01801,-0.194548 0.254552,-0.370825 0.437959,-0.354034 0.276199,0.02538 0.394621,0.351896 0.643742,0.290743 0.07181,-0.01749 0.126007,-0.07732 0.18991,-0.110837 l 0.175792,-0.07592 c 0.09061,-0.05205 0.295001,-0.267817 0.346989,-0.359703 0.08526,-0.150554 0.03146,-0.370868 0.233969,-0.41592 0.310852,-0.069 0.32128,0.28286 0.325255,0.482753 v 0.363699 c 0.329268,-0.100212 0.0697,-0.231739 0.194624,-0.385847 0.138993,-0.154474 0.569723,-0.07149 0.741942,0 0,-0.143039 -0.01407,-0.585762 0.02095,-0.686967 0.04836,-0.138741 0.261381,-0.359368 0.37619,-0.453068 0.192429,-0.15699 0.299664,-0.142337 0.396056,-0.252127 0.100741,-0.114789 0.05299,-0.213143 0.100039,-0.331162 0.043,-0.109088 0.140783,-0.176288 0.225987,-0.251036 -0.23143,-0.0649 -0.742346,-0.02224 -1.223687,-0.200455 0,0 -0.816042,0.01317 -1.144288,0.175823 -0.423963,0.189625 -1.191535,0.122176 -1.191535,0.122176 -0.515207,-0.07581 -0.07071,-0.808808 0.05674,-0.994771 0.08993,-0.131236 0.08809,-0.288961 0.221337,-0.353321 0.04583,-0.01825 0.09215,-0.01749 0.139723,0 0.191345,0.05583 0.180524,0.232084 0.181243,0.392304 0.20398,-0.124098 0.50072,-0.672324 1.010868,-0.679473 0.537235,-0.0076 0.28704,-0.05443 0.577692,-0.127661 0.12454,-0.03175 0.244763,0.0108 0.326357,-0.07149 0.119502,-0.103667 0.110834,-0.292147 0,-0.387996 -0.05411,-0.0379 -0.124541,-0.06004 -0.178704,-0.0892 -0.06818,-0.03704 -0.112657,-0.08088 -0.189921,-0.106906 -0.04583,-0.0054 -0.549595,-0.111593 -0.981273,-0.06782 -0.437646,0.176115 -1.142703,0.06782 -1.142703,0.06782 -0.390291,-0.0065 -0.311578,-0.07732 -0.541552,-0.13196 l -0.252753,-0.04039 -0.180504,-0.08477 -0.21191,-0.0581 c -0.09495,-0.03823 -0.32566,-0.254967 -0.385598,-0.337943 -0.06141,-0.08542 -0.154144,-0.239644 -0.0722,-0.336184 0.107965,-0.126614 0.573657,-0.08769 0.741901,-0.0784 h 0.395752 c 0.119141,-0.01469 0.162421,-0.101615 0.291665,-0.144119 0.05411,-0.0065 0.122758,-0.0065 0.179078,0 0.337209,-0.01177 0.4318,0.05518 0.649869,0.314349 h 0.07221 c 0.08951,-0.110859 0.217687,-0.274977 0.361372,-0.310742 0.116975,-0.02894 0.356387,0.01793 0.443028,-0.04665 0.03248,-0.02386 0.143324,-0.236026 0.295315,-0.340082 0.108683,-0.07473 0.192448,-0.03995 0.308331,-0.06436 l 0.324939,-0.125524 0.758188,-0.407649 c 0.149109,-0.05583 0.423092,-0.02009 0.577623,0 L 73.868797,28.33793 c -0.222753,-0.122662 -0.316293,-0.281111 -0.577684,-0.286132 h -1.371927 c -0.45382,-6.69e-4 -0.392819,-0.09611 -0.685989,-0.131938 l -0.433248,0.02473 c -0.147308,9.18e-4 -0.632167,-0.01793 -0.758176,-0.04687 -0.11915,-0.02754 -0.170389,-0.09362 -0.288821,-0.120859 l -0.288861,-0.02322 c -0.210485,-0.04104 -0.2278,-0.14914 -0.505445,-0.128752 -0.233585,0.01717 -0.293493,0.174517 -0.505433,0.120167 -0.385587,-0.09989 -0.02964,-0.38941 0.105772,-0.52138 0.07111,-0.06976 0.135008,-0.153082 0.222389,-0.203133 l 0.249141,-0.114779 0.650193,-0.425197 c 0.169319,-0.09848 0.224241,-0.05702 0.307634,-0.109066 0.06535,-0.04071 0.125299,-0.140923 0.169348,-0.204926 0.163907,-0.239244 0.27183,-0.383374 0.209008,-0.689472 -0.251649,0.103235 -0.2101,0.141624 -0.505435,0.14306 h -1.841231 c -0.15994,0 -0.723875,0.05518 -0.761777,-0.146268 -0.01112,-0.05928 0.03782,-0.131948 0.06128,-0.185585 0.195323,-0.442367 0.483071,-0.29895 0.664314,-0.678371 -0.150564,-0.02149 -0.18195,0.0086 -0.28882,0 -0.09599,-0.02419 -0.146601,-0.073 -0.252743,-0.06177 -0.115892,0.01209 -0.111899,0.06728 -0.397128,0.07473 h -0.28886 c -0.183773,0.03466 -0.296783,0.174884 -0.50402,0.12804 -0.0791,-0.01782 -0.126341,-0.05928 -0.186633,-0.102587 -0.236833,-0.153406 -0.246219,-0.310397 0,-0.472754 0.18016,-0.112998 0.552751,-0.02149 0.722795,-0.06846 0.193168,-0.05324 0.08376,-0.207366 0.401104,-0.274944 l 0.0261,-0.175597 0.32023,-0.567534 0.19531,-0.186698 c -0.373317,0.0054 -0.297824,0.127705 -0.577622,0.251069 -0.112644,0.04967 -0.185612,0.02224 -0.288871,0.05583 -0.130336,0.04211 -0.22958,0.165932 -0.393848,0.08607 -0.05167,-0.02495 -0.115926,-0.0865 -0.155636,-0.128018 -0.177278,-0.18524 -0.06493,-0.329359 0.06716,-0.509221 0.129245,-0.175597 0.343318,-0.299738 0.436464,-0.410219 0.104704,-0.124433 0.06827,-0.200985 0.144801,-0.303259 0.101809,-0.136257 0.487742,-0.33898 0.659235,-0.365426 l 0.02093,-0.139875 0.181232,-0.379399 0.122749,-0.08876 0.0361,-0.21458 c -0.369697,-9.29e-4 -0.246239,-0.04665 -0.469357,-0.122327 -0.08912,-0.03078 -0.157049,-0.01436 -0.23937,-0.07786 -0.08052,-0.0622 -0.323475,-0.44485 -0.374381,-0.550709 -0.135391,0.07667 -0.43719,0.297891 -0.577995,0.316519 -0.284138,0.03758 -0.367542,-0.178124 -0.472592,-0.378028 -0.04763,-0.0906 -0.192459,-0.384788 -0.194623,-0.474914 -0.004,-0.174517 0.22888,-0.305029 0.378707,-0.321832 l 0.231441,-0.256425 c 0.07363,-0.106906 0.143354,-0.639399 -0.149088,-0.546779 -0.110117,0.03466 -0.206175,0.179204 -0.305106,0.230692 -0.09598,0.05043 -0.162126,0.01965 -0.26755,0.06976 -0.183041,0.08682 -0.355619,0.207032 -0.553821,0.255313 -0.123844,0.0297 -0.26209,0.167346 -0.380155,0.04967 -0.127808,-0.127294 -0.02669,-0.376883 0.05201,-0.502417 l 0.133598,-0.249201 c 0.05452,-0.07084 0.156319,-0.121215 0.28522,-0.299317 l 0.140409,-0.247775 0.199329,-0.255679 c -0.0978,-0.103667 -0.09679,-0.109801 -0.108314,-0.250345 -0.174375,-0.09773 -0.188798,-0.358321 -0.103592,-0.530311 l 0.240784,-0.337944 c 0.04118,-0.07581 0.06028,-0.157369 0.07951,-0.240335 -0.319518,0.0108 -0.421361,0.210272 -0.651357,0.268206 -0.08375,0.02462 -0.348023,0.02656 -0.428534,0 -0.216987,-0.08218 -0.34875,-0.334369 -0.266064,-0.551076 0.11192,-0.292536 0.395663,-0.315764 0.407223,-0.68268 -0.265011,0.132316 -0.257427,0.102911 -0.541563,0.10723 -0.281245,0.0054 -0.207946,0.07786 -0.397502,0.127651 -0.258143,0.06803 -0.630004,0.02829 -0.758175,-0.238132 -0.06494,-0.134464 -0.0108,-0.267525 0.112643,-0.343677 l 0.393176,-0.178783 0.180543,-0.03045 c 0.208683,-0.06479 0.163917,-0.145577 0.433257,-0.08769 l 0.0361,-0.107231 -0.0361,-0.03574 c -0.271152,-0.0086 -0.807679,-0.316519 -0.830061,-0.607975 -0.006,-0.07473 0.04611,-0.151969 0.08304,-0.213824 0.06141,-0.103667 0.06545,-0.118731 0.169339,-0.179517 V 13.0323 c -0.312296,0.02462 -0.214812,0.136992 -0.541555,0.143061 -0.125996,0.0022 -0.317726,0.01749 -0.406542,-0.08682 -0.139006,-0.163416 0.0347,-0.276446 0.07111,-0.41983 l 0.04663,-0.351518 c -0.403651,-0.07505 -0.398249,0.172336 -0.685988,0.264967 -0.220963,0.07149 -0.445161,-0.106475 -0.318438,-0.332545 0.07292,-0.130869 0.287011,-0.175251 0.42203,-0.257148 0.244418,-0.148039 0.257092,-0.27462 0.257457,-0.533518 -0.09427,3.46e-4 -0.186675,-0.0086 -0.273692,0.03358 -0.131417,0.06296 -0.335022,0.248855 -0.484494,0.224191 -0.245855,-0.04104 -0.276908,-0.347274 -0.247666,-0.543961 0.02387,-0.158761 0.0974,-0.179462 0.140046,-0.357575 0.07008,-0.290722 -0.106496,-0.708046 -0.361735,-0.8582338 z"
       id="Selection #2-2"
       inkscape:connector-curvature="0"
       sodipodi:nodetypes="ccccccccccccccccccccccccccccccccccccsccccccccccccccccccccccccccsccccccccccccccccccccccccccccccccccccccccccccccccccccccccccccccccccccccccccccccccccccccccccccccccccccccccccccccccccccccccccccccccccccccccccccccccccccccccccccccccccccccccccccccccccccccccccccccccccccccccccccccsccccccccccccccccccccccccccccccccccccccccccccccccccccccccccccccccccccccccccccccccccccccccccccccccccccccccccccccccccccccccccccccccccccccccccccccccccccccccccccccccccccccccccccccsccccccccccccccccccccccccccccccccccccccccccccccccccccccccccccccccccccccccccccccccccccccccccccccccccccccccccccccccccccccccccccccccccccccccccccccccccccccccccccccccccccccccccccccccccccccccccccccccccscccccccccccccccccccccccccccccccccccccccccccccccccccccccccccccccccccccccccccccccc" />
  </g>
</svg>
