<?xml version="1.0" encoding="UTF-8" standalone="no"?>
<!-- Created with Inkscape (http://www.inkscape.org/) -->

<svg
   xmlns:dc="http://purl.org/dc/elements/1.1/"
   xmlns:cc="http://creativecommons.org/ns#"
   xmlns:rdf="http://www.w3.org/1999/02/22-rdf-syntax-ns#"
   xmlns:svg="http://www.w3.org/2000/svg"
   xmlns="http://www.w3.org/2000/svg"
   xmlns:sodipodi="http://sodipodi.sourceforge.net/DTD/sodipodi-0.dtd"
   xmlns:inkscape="http://www.inkscape.org/namespaces/inkscape"
   width="100%"
   height="100%"
   viewBox="0 0 100 100"
   version="1.1"
   id="svg8"
   inkscape:version="0.92.3 (2405546, 2018-03-11)"
   sodipodi:docname="organisms.svg">
  <title
     id="title821">NEON Data Theme - Organisms, Populations, &amp; Communities</title>
  <defs
     id="defs2" />
  <sodipodi:namedview
     id="base"
     pagecolor="#ffffff"
     bordercolor="#ff0066"
     borderopacity="1"
     inkscape:pageopacity="0.0"
     inkscape:pageshadow="2"
     inkscape:zoom="2"
     inkscape:cx="-109.49137"
     inkscape:cy="188.5558"
     inkscape:document-units="px"
     inkscape:current-layer="layer5"
     showgrid="false"
     units="px"
     showguides="false"
     inkscape:pagecheckerboard="true"
     borderlayer="true"
     inkscape:showpageshadow="false"
     inkscape:measure-start="183.494,247.134"
     inkscape:measure-end="183.848,247.134"
     inkscape:window-width="1920"
     inkscape:window-height="1147"
     inkscape:window-x="1912"
     inkscape:window-y="-8"
     inkscape:window-maximized="1" />
  <metadata
     id="metadata5">
    <rdf:RDF>
      <cc:Work
         rdf:about="">
        <dc:format>image/svg+xml</dc:format>
        <dc:type
           rdf:resource="http://purl.org/dc/dcmitype/StillImage" />
        <dc:title>NEON Data Theme - Organisms, Populations, &amp; Communities</dc:title>
      </cc:Work>
    </rdf:RDF>
  </metadata>
  <g
     inkscape:groupmode="layer"
     id="layer5"
     inkscape:label="Layer 1"
     style="display:inline">
    <rect
       style="display:inline;opacity:1;fill:#f5b23b;fill-opacity:1;stroke:none;stroke-width:0.36813006;stroke-opacity:1"
       id="rect5871"
       width="100"
       height="100"
       x="0"
       y="8.8817842e-016" />
    <circle
       style="opacity:1;fill:#fffbff;fill-opacity:1;stroke:none;stroke-width:0.28373924;stroke-opacity:1"
       id="path5836"
       cx="72.714287"
       cy="27.085716"
       r="21.142857" />
    <circle
       style="display:inline;opacity:1;fill:#a4681b;fill-opacity:1;stroke:none;stroke-width:0.28373924;stroke-opacity:1"
       id="path5836-3"
       cx="27"
       cy="27.085716"
       r="21.142857" />
    <circle
       style="display:inline;opacity:1;fill:#fffbff;fill-opacity:1;stroke:none;stroke-width:0.28373924;stroke-opacity:1"
       id="path5836-0"
       cx="27"
       cy="72.771431"
       r="21.142857" />
    <circle
       style="display:inline;opacity:1;fill:#a4681b;fill-opacity:1;stroke:none;stroke-width:0.28373924;stroke-opacity:1"
       id="path5836-3-4"
       cx="72.999992"
       cy="72.771431"
       r="21.142857" />
    <path
       style="fill:#ffffff;fill-opacity:1;stroke:none;stroke-width:0.0357562;stroke-opacity:1"
       d="M 30.105836,25.085767 C 29.20727,24.495618 27.908009,24.4683 26.784128,24.282348 c -0.817684,-0.135292 -1.648079,-0.191729 -2.476206,-0.225034 -0.6578,-0.02646 -1.3175,-0.01524 -1.974879,0.02021 -0.561627,0.03029 -1.125478,0.166603 -1.67932,0.164271 -0.519749,-0.393963 -1.044704,-0.810751 -1.64161,-1.080792 -0.696891,-0.31527 -1.455011,-0.504444 -2.213065,-0.606425 -0.623773,-0.08392 -1.295395,-0.211534 -1.888176,0 -0.663146,0.236646 -1.312512,0.617227 -1.635121,1.337282 -0.334024,0.374018 -0.473402,0.970895 -1.023626,1.14451 -0.549727,0.02286 -2.6842417,1.080846 -0.734211,0.761053 0.509394,0.01877 1.071766,-0.182625 1.541993,0.0092 -0.2208,0.500062 -2.858488,0.452914 -1.75613,1.067145 0.65077,0.135594 1.412323,-0.13782 1.970894,0.250069 0.429462,0.248517 0.79531,0.607718 1.22366,0.858641 0.489351,0.417759 0.990042,0.865828 1.243972,1.466634 0.606571,0.608532 1.079617,1.315501 1.650412,1.952239 0.492893,0.506844 0.971813,1.066837 1.663024,1.285079 0.34438,0.344831 2.187677,0.711547 0.961372,1.016549 -0.742138,-0.005 -1.467429,-0.237239 -2.124149,-0.472195 -0.746921,-0.632058 -1.273226,0.478888 -0.230292,0.32917 -0.523756,0.409177 -2.171112,-0.841585 -1.961229,0.514889 0.678803,-0.308143 1.267038,0.184357 2.04331,0.03256 0.588515,-0.149397 1.362455,0.307207 0.283345,0.423866 -1.033636,-0.254035 -1.297144,0.529649 -0.241058,0.606022 0.939364,-0.150429 2.003603,-0.707175 2.896673,-0.639991 0.756791,0.484916 1.66363,0.426519 2.382528,0.254047 0.623212,0.551923 0.780073,-0.207255 0.09665,-0.381831 -0.604498,-0.193076 -1.337229,0.05456 -1.937515,-0.235884 -0.135772,-0.87799 1.545297,0.109023 2.155885,0.01181 0.90321,0.376467 1.91039,0.127695 2.854429,0.187282 0.0108,0.366743 -0.879399,0.622607 -1.218617,0.984949 -0.584531,0.494023 -1.229156,0.889754 -1.811354,1.384043 -0.650716,0.537362 -1.541378,0.188239 -2.289206,0.108108 -0.714061,-0.72238 -1.551151,0.133683 -0.375837,0.416655 0.305203,0.531363 -1.30953,-0.437858 -1.7015,0.006 -0.488369,0.755413 0.363774,0.53979 0.458295,0.429504 0.522871,0.560134 2.117313,-0.273761 2.205754,0.279828 -0.567566,-0.315384 -1.623307,0.781236 -0.700325,0.788612 0.939763,0.531605 1.522847,-1.299612 2.621858,-0.946382 0.786002,0.139115 1.583957,-0.07984 2.354592,0.126984 0.293173,-0.967263 1.805988,0.546946 1.506369,-0.482485 -0.604433,-0.642507 -1.552933,-0.272184 -2.328751,-0.293068 -0.690703,0.344157 -1.722989,0.119068 -0.60602,-0.404743 0.628557,-0.512508 1.345112,-0.880876 1.970516,-1.382575 0.557923,-0.334827 1.076906,-0.721986 1.649029,-1.055658 0.302816,-0.79947 1.184882,-0.918134 1.798311,-1.365573 0.906719,-0.565212 1.758409,-1.288943 2.481713,-2.098487 0.389583,-0.855865 0.766639,-1.8155 1.660789,-2.314611 0.660683,-0.548685 1.331279,-1.124623 1.814357,-1.836684 0.533497,-0.400308 1.23961,-0.23264 1.300363,-0.983877 1.202376,-0.512758 2.502576,-0.750429 3.665094,-1.332052 0.980291,-0.240853 1.834561,-0.601407 2.779065,-0.979184 0.55639,-0.485563 2.392819,-0.751415 1.602596,-1.726085 -1.261542,0.248844 -2.474274,0.573462 -3.703722,0.890999 -1.034402,0.267162 -2.056354,0.580802 -3.089429,0.853099 -0.742547,0.195721 -1.487859,0.381004 -2.234359,0.561059 -0.845653,0.203971 -1.686123,0.435744 -2.542575,0.58819 -0.753152,0.134057 -1.460237,0.433867 -2.277057,0.28605 -0.3744,0.04468 -0.907465,-0.16711 -1.119777,0.250293 z M 14.94628,24.32273 c 1.310838,0.121024 0.300019,1.483234 -0.463769,0.755528 -0.09665,-0.309124 0.2181,-0.619809 0.463769,-0.755528 z"
       id="Selection"
       inkscape:connector-curvature="0"
       sodipodi:nodetypes="caaacaaaccccccccccccccccccccccccccccccccccccccccccccccaaaacccccc" />
    <path
       d="m 78.240022,17.544659 c -0.07775,-0.05432 -0.179906,-0.138017 -0.282493,-0.114055 -0.170943,0.04006 -0.140922,0.293561 -0.468446,0.240281 -0.481619,-0.07797 -0.31532,-0.266381 -0.893912,-0.272461 -0.125804,0.0022 -0.287568,-0.02062 -0.42903,0 -0.319964,0.04665 -0.631505,0.151743 -0.929656,0.276748 -0.186277,0.07807 -0.357435,0.18849 -0.530322,0.292848 -0.160792,0.09708 -0.32018,0.197421 -0.470929,0.309641 -0.354628,0.2642 -0.698781,0.545116 -1.015829,0.853504 -0.213921,0.2081 -0.415748,0.430412 -0.594574,0.669354 -0.141678,0.189268 -0.261543,0.39374 -0.375793,0.60142 -0.128396,0.175921 -0.268886,0.177357 -0.203122,0.503811 0.01512,0.07397 0.02916,0.137305 0.09071,0.188069 0.104747,0.08585 0.440585,0.0973 0.526003,-0.02041 0.07019,-0.09762 0.05399,-0.270679 0.08639,-0.382229 0.170403,-0.369195 0.368342,-0.620588 0.6071,-0.888189 0.340265,-0.381322 0.756229,-0.689148 1.159235,-1.003314 0.197075,-0.153578 0.395771,-0.308139 0.613903,-0.429797 0.226772,-0.126387 0.462615,-0.248174 0.715195,-0.307858 0.290484,-0.06868 0.683986,-0.128364 0.893912,-0.05151 0.09719,0.03542 0.138331,0.07753 0.214461,0.141948 -0.444796,0.170921 -0.482591,0.07278 -0.715086,0.144098 -0.209926,0.06436 -0.409053,0.160781 -0.607856,0.254232 -0.192756,0.0906 -0.389292,0.177746 -0.566065,0.29678 -0.175371,0.118169 -0.3272,0.268281 -0.484104,0.410121 -0.141246,0.127694 -0.307438,0.115492 -0.411213,0.396538 -0.01944,0.435444 0.118246,0.932096 0.220617,1.286864 0.05183,0.168405 0.140598,0.209526 0.157768,0.28962 0.02592,0.119789 -0.09395,0.178782 -0.148481,0.354347 -0.06047,0.195941 -0.05831,0.44052 -0.05075,0.64361 0.0108,0.238499 -0.204742,0.294998 -0.361539,0.301423 -0.322447,0.01328 -0.496954,-0.426201 -0.791973,-0.557081 -0.132607,-0.05885 -0.279469,-0.09093 -0.424387,-0.09578 -0.264135,-0.0086 -0.530429,0.04546 -0.783442,0.121571 -0.202043,0.0608 -0.155932,0.281759 -0.575352,0.264243 -0.277633,0.03995 -0.421687,-0.200315 -0.643923,-0.269242 -0.453004,-0.140491 -1.082997,-0.36209 -1.392702,-0.290344 -0.204095,0.133396 -0.386916,0.161656 -0.570385,0.262451 -0.311541,0.171223 -0.604185,0.375436 -0.89564,0.578894 -0.278389,0.194267 -0.549004,0.399744 -0.813787,0.612143 -0.397282,0.318646 -0.795644,0.638254 -1.161394,0.99259 -0.214894,0.20823 -0.467042,0.560212 -0.604617,0.663642 -0.408297,0.225433 -0.783442,0.187994 -1.176081,0.278184 -0.452247,0.103883 -0.698025,0.241091 -1.358686,0.302848 -0.134767,-0.0065 -0.179906,-0.05183 -0.429138,-0.05475 -0.276014,-0.0032 -0.352468,-0.01965 -0.357544,0.250291 0,0.127295 -0.01296,0.502731 0.03132,0.602856 0.06587,0.145879 0.330763,0.169129 0.466934,0.127651 0.169863,-0.05151 0.148805,-0.180218 0.29178,-0.259589 0.109066,-0.06047 0.236382,-0.0392 0.353331,-0.06512 0.408837,-0.09038 0.810331,-0.211017 1.216036,-0.314295 0.35722,-0.09093 0.653427,-0.229839 1.072738,-0.268887 0.239946,-0.136084 0.496738,-0.196027 0.715087,-0.345762 0.245993,-0.168674 0.437129,-0.405942 0.653642,-0.611074 0.342425,-0.324434 0.672756,-0.661676 1.020797,-0.980074 0.234222,-0.214289 0.456891,-0.44511 0.718002,-0.625739 0.166515,-0.1152 0.342641,-0.357414 0.534965,-0.287838 0.226232,0.224299 0.188005,0.241868 0.505161,0.36615 l 0.48054,0.27746 c 0.06371,0.07397 0.01944,0.126939 -0.05507,0.164129 -0.100428,0.05075 -0.240162,0.03088 -0.351172,0.07581 -0.154637,0.06263 -0.285841,0.172314 -0.424711,0.264599 -0.279685,0.185726 -0.549975,0.385274 -0.822425,0.581399 -0.263811,0.189895 -0.534858,0.370761 -0.786682,0.576389 -0.202583,0.165511 -0.346421,0.411958 -0.580968,0.527763 -0.271154,0.133806 -0.594141,0.113353 -0.892508,0.161969 -0.320936,0.05227 -0.642304,0.103235 -0.965399,0.139453 -0.151289,0.01695 -0.367262,-0.01749 -0.455163,0.0365 -0.107987,0.150263 -0.254093,0.275603 -0.356572,0.431579 -0.117489,0.178944 -0.195131,0.381095 -0.291671,0.572101 -0.09071,0.179441 -0.184981,0.357306 -0.270723,0.539199 -0.09935,0.21121 -0.193295,0.425261 -0.283248,0.640759 -0.108095,0.25907 -0.218889,0.517623 -0.308194,0.783777 -0.105826,0.316681 -0.19146,0.640349 -0.269966,0.965054 -0.08315,0.342662 -0.0108,0.765181 -0.21133,1.036217 -0.199451,0.264955 -0.736899,0.390101 -1.057295,0.394032 -0.227744,0.0022 -0.455811,7.12e-4 -0.679344,0.05432 l -0.250312,0.09082 c -0.165867,0.05896 -0.46661,0.10302 -0.6436,0.105179 l -1.036886,0.06512 -0.929656,-0.06468 c -0.102587,0.0022 -0.261759,0.01177 -0.336162,0.09114 -0.07451,0.07969 -0.07451,0.375793 -0.03564,0.474482 0.03348,0.08434 0.257008,0.381516 0.338214,0.413696 0.118677,0.04719 0.385836,0.02473 0.492743,-0.04471 0.09719,-0.06328 0.133363,-0.149454 0.256684,-0.19916 0.145565,-0.05788 0.447388,-0.05475 0.607532,-0.05648 l 0.572112,-0.05831 c 0.36953,-0.167033 0.778043,-0.160079 1.215712,-0.205239 l 0.536369,-0.03326 c 0.645867,-0.161936 1.140878,-0.268918 1.537512,-0.458035 0.115438,-0.05475 0.254524,-0.0947 0.321044,-0.214181 0.04319,-0.07872 0.03672,-0.194516 0.02808,-0.282481 -0.03887,-0.390264 0.0216,-0.768432 0.09395,-1.144193 0.05615,-0.293928 0.170834,-0.573873 0.264567,-0.858147 0.09503,-0.287957 0.199451,-0.572728 0.301822,-0.858147 0.08531,-0.23891 0.17591,-0.476145 0.261327,-0.71513 0.08099,-0.227441 0.23919,-0.684019 0.23919,-0.684019 0.247613,-0.117576 0.582803,0.05972 0.814542,0.111917 -0.163275,0.426903 -0.480108,0.656947 -0.690789,1.004393 -0.09719,0.160479 -0.182497,0.328258 -0.263919,0.497375 -0.106907,0.22242 -0.212842,0.44646 -0.294587,0.679365 -0.114574,0.326368 -0.221697,0.659074 -0.272774,1.001175 -0.08315,0.554295 -0.103667,1.122574 -0.05075,1.68054 0.04427,0.474029 0.181633,0.93579 0.309273,1.394495 0.07451,0.266521 0.15982,0.530592 0.264675,0.786638 0.08531,0.208242 0.221589,0.555915 0.294911,0.607133 0.06803,0.04395 0.19524,0.03618 0.275366,0.0365 0.02052,0.272548 0.195456,0.38116 0.360783,0.50595 0.241458,0.182302 0.566065,0.215173 0.855253,0.304284 0.423739,0.130566 0.851042,0.25515 1.286875,0.336821 0.400954,0.07516 0.807847,0.146991 1.215712,0.13981 0.43389,-0.0076 0.864756,-0.09492 1.287199,-0.19416 0.329143,-0.07732 0.651915,-0.184571 0.965508,-0.311077 0.195779,-0.07905 0.38454,-0.175467 0.568873,-0.27854 0.158524,-0.08877 0.317912,-0.179139 0.460454,-0.291769 0.09503,-0.07537 0.139843,-0.254567 0.261435,-0.254589 0.242862,-4.3e-5 0.56747,0.356485 0.522007,0.508098 -0.164247,0.289696 -0.558398,0.276781 -0.84737,0.392607 -0.257224,0.103019 -0.523086,0.182853 -0.786682,0.268163 -0.32018,0.103667 -0.641007,0.206135 -0.965399,0.296066 -0.343181,0.09514 -0.683446,0.214213 -1.036886,0.25744 -0.327631,0.04006 -0.845967,-0.0771 -0.990129,0 -0.105826,0.07721 -0.07235,0.192367 -0.172346,0.359001 -0.178934,0.472474 -0.333678,0.895543 -0.446632,1.35873 -0.157229,0.645187 -0.188437,1.315394 -0.31856,1.966596 -0.108095,0.540656 -0.137143,0.906439 -0.383352,1.60902 -0.01188,0.121939 0.08855,0.421569 0.206362,0.474137 0.07667,0.03402 0.263919,0.02754 0.352576,0.02646 0.188004,-0.0022 0.448036,0.0065 0.490582,-0.215249 0.03564,-0.120146 0.04211,-0.276402 0,-0.391181 -0.09071,-0.189149 -0.195239,-0.136938 -0.203878,-0.430499 0.131743,-0.652595 0.133471,-1.172496 0.24135,-1.75206 0.127316,-0.683403 -0.01728,-1.497902 0.478488,-2.029876 0.19092,-0.184862 0.450736,-0.07786 0.673944,-0.127294 0.372229,-0.08239 0.742083,-0.176591 1.108481,-0.282115 0.300311,-0.0865 0.598785,-0.180446 0.892509,-0.287482 0.230227,-0.08391 0.454299,-0.184063 0.680746,-0.277828 0.238867,-0.09891 0.480001,-0.192917 0.715087,-0.300342 0.19254,-0.0879 0.360567,-0.157985 0.568981,-0.281402 0.251393,-0.09784 0.426439,-0.14427 0.482268,-0.331109 0.190164,-0.635565 0.30085,-1.122973 0.307545,-1.374463 0,-0.210962 -0.01296,-0.788787 0.06263,-0.96149 0.187141,-0.176515 0.348581,-0.338095 0.511641,-0.517752 0.183901,-0.202507 0.357975,-0.413988 0.525246,-0.630382 0.11101,-0.143471 0.207766,-0.29746 0.316832,-0.442302 0.09179,-0.121431 0.19254,-0.235551 0.283249,-0.357554 0.101507,-0.136657 0.198695,-0.276694 0.292103,-0.419063 0.09071,-0.139206 0.03672,-0.401904 0.262084,-0.425143 0.07019,-0.0076 0.152261,0.01425 0.208846,0.05648 0.141246,0.105827 0.108634,0.268886 0.18876,0.404409 0.07991,0.135513 0.23595,0.190931 0.337134,0.326454 0.04643,0.06296 0.06479,0.138374 0.04643,0.206665 -0.05399,0.207474 -0.284436,0.321238 -0.431622,0.477343 -0.36899,0.391505 -0.746295,0.7753 -1.130943,1.151352 -0.319748,0.312513 -0.714654,0.556552 -0.977925,0.917864 -0.20971,0.287784 -0.332275,0.632013 -0.457323,0.965421 -0.125913,0.335827 -0.196428,0.689926 -0.292536,1.035494 -0.09935,0.357154 -0.211329,0.711145 -0.293183,1.072694 -0.02916,0.128623 0,0.269243 -0.07019,0.389378 -0.06263,0.116215 -0.159496,0.131225 -0.217701,0.200239 -0.09935,0.118354 -0.04859,0.331454 0.0378,0.443371 0.143838,0.186655 0.405921,0.188793 0.620383,0.182001 0.104747,-0.0032 0.209169,-0.0065 0.259599,-0.114779 0.105827,-0.227409 -0.06911,-0.543798 -0.04104,-0.814164 0.04104,-0.404248 0.205931,-0.78611 0.304306,-1.180314 0.07991,-0.321087 0.151721,-0.64428 0.233143,-0.965054 0.01836,-0.07149 0.01728,-0.151883 0.05723,-0.213824 0.404733,-0.460476 0.474817,-0.612543 1.133102,-1.080556 0.222777,-0.239806 0.435618,-0.488823 0.642196,-0.742656 0.170835,-0.209893 0.330547,-0.428631 0.493498,-0.644679 0.197076,-0.261306 0.427195,-0.501673 0.585611,-0.788075 0.142218,-0.256976 0.331519,-0.589725 0.319748,-0.820957 l -0.08531,-0.750884 c -0.189084,-0.292902 -0.204634,-0.39008 -0.274178,-0.750884 -0.06047,-0.197367 -0.243509,-0.307859 -0.236706,-0.464115 0.0108,-0.143018 0.146969,-0.169485 0.218133,-0.265669 0.140058,-0.34979 0.355707,-0.592532 0.36035,-0.771974 0,-0.163048 0.0216,-0.581755 -0.04643,-0.711544 -0.1582,-0.15779 -0.231415,-0.281402 -0.336162,-0.490939 -0.07235,-0.09546 -0.274609,-0.205239 -0.226015,-0.441946 0.243293,-0.141203 0.790461,-0.283972 1.179644,-0.250291 0.13088,0.01641 0.166947,0.104423 0.288864,0.152326 0.374281,0.02365 0.661849,0.126722 0.963996,0.235983 0.17591,0.0622 0.522762,0.0744 0.673295,-0.04643 0.296099,-0.350265 0.637229,-0.723444 0.894237,-1.128826 0.106906,-0.168523 0.183685,-0.354584 0.266078,-0.536336 0.101508,-0.223079 0.176666,-0.457312 0.280009,-0.679376 0.06263,-0.134022 -0.01296,-0.273886 0.204851,-0.393319 0.05615,0.248509 0.04643,0.528626 0,0.786639 -0.04536,0.250474 -0.160468,0.484341 -0.267807,0.715129 -0.08639,0.18551 -0.192,0.361798 -0.301066,0.534912 -0.09179,0.146224 -0.189624,0.289684 -0.297827,0.424419 -0.135091,0.168102 -0.285192,0.32383 -0.437021,0.476998 -0.265755,0.268303 -0.532482,0.538334 -0.828473,0.773043 -0.125912,0.09989 -0.240918,0.201459 -0.400738,0.26853 l -0.250312,0.163405 c -0.165544,0.08725 -0.350741,0.06047 -0.45376,0.142315 -0.09935,0.0797 -0.08423,0.192011 -0.02592,0.291413 0.05075,0.08617 0.205606,0.313938 0.305061,0.335741 0.153665,0.03358 0.222777,-0.09514 0.32396,-0.178059 0.297935,-0.203479 0.614011,-0.376063 0.890241,-0.604995 0.406893,-0.337144 0.762168,-0.733228 1.119172,-1.122746 0.159928,-0.174398 0.318992,-0.350913 0.457323,-0.542783 0.105826,-0.146344 0.205498,-0.298562 0.282816,-0.46161 0.05399,-0.113613 0.08531,-0.236642 0.124509,-0.356129 0.08207,-0.249244 0.196535,-0.492257 0.230551,-0.75231 0.04967,-0.378417 0.01404,-0.763399 -0.04211,-1.144203 -0.03455,-0.237776 -0.137251,-0.326454 -0.116949,-0.425856 0.02052,-0.0973 0.141246,-0.143384 0.178826,-0.289619 0.02592,-0.101184 -0.01512,-0.200953 0.02268,-0.28069 0.08423,-0.177713 0.39955,-0.153297 0.601161,-0.224903 0.236922,-0.08423 0.47622,-0.161991 0.715086,-0.240648 0.297287,-0.09784 0.59155,-0.206589 0.893912,-0.287838 0.369854,-0.09935 0.810979,0.02322 1.122736,-0.243499 0.05939,-0.05756 0.05615,-0.147672 0.05723,-0.223834 0.0108,-0.416915 0.0108,-0.37007 -0.244265,-0.579251 -0.06155,-0.05183 -0.104747,-0.105503 -0.187681,-0.124066 -0.204526,-0.04579 -0.19416,0.1348 -0.391559,0.256015 -0.255064,0.220228 -0.520495,0.23162 -0.785602,0.335752 -0.271046,0.106474 -0.546844,0.200941 -0.822317,0.295343 -0.272666,0.09341 -0.562502,0.142963 -0.822101,0.268173 -0.116086,0.05605 -0.219861,0.179139 -0.32288,0.213101 -0.191568,0.06328 -0.194808,-0.213457 -0.356787,-0.213457 -0.168459,0 -0.15982,0.276748 -0.325364,0.272817 -0.113386,-0.0032 -0.228499,-0.151246 -0.35398,-0.218835 -0.09719,-0.05291 -0.415532,-0.123709 -0.536369,-0.148028 v -0.10723 c 0.323204,-0.08509 0.302471,-0.08725 0.575353,-0.249579 0.06803,-0.04039 0.136926,-0.06328 0.193079,-0.122651 0.197292,-0.297513 0.336378,-0.594217 0.339942,-0.807728 0,-0.204883 0.02592,-0.650046 -0.09719,-0.81059 -0.104747,-0.136592 -0.277525,-0.141959 -0.377305,-0.269966 -0.09719,-0.125146 -0.06911,-0.302848 -0.277417,-0.384378 -0.211222,-0.03887 -1.07317,-0.06339 -1.206749,0.0054 -0.108311,0.103343 -0.19686,0.179182 -0.3218,0.26853 -0.05183,0.04363 -0.250313,0.309285 -0.283573,0.372219 -0.03456,0.06512 -0.07559,0.274253 -0.175586,0.256727 -0.17375,-0.03034 -0.09071,-0.376506 -0.271046,-0.555288 -0.05291,-0.05183 -0.157012,-0.11371 -0.144054,-0.201665 0.02052,-0.141592 0.375037,-0.127651 0.300311,-0.353278 -0.04211,-0.125858 -0.248801,-0.131938 -0.248801,-0.262094 0.207334,-0.303561 0.210573,-0.545494 0.31532,-0.818451 0.100428,-0.262083 0.197616,-0.525527 0.300743,-0.786639 0.08963,-0.227441 0.17483,-0.457085 0.276661,-0.679364 0.08207,-0.179873 0.174938,-0.394842 0.270398,-0.528486 0.08639,-0.115135 0.20809,-0.107987 0.252797,-0.259945 0.0108,-0.04471 0.0108,-0.129789 0,-0.17699 -0.02376,-0.407984 -0.279685,-0.357921 -0.600729,-0.353634 h -0.213057 c -0.282169,0.05864 -0.134876,0.356495 -0.14589,0.639679 -0.01944,0.487365 -0.173319,0.525754 -0.265755,0.786639 -0.08963,0.252105 -0.186277,0.501414 -0.278821,0.752309 -0.07883,0.213954 -0.15982,0.427249 -0.236059,0.642185 -0.06263,0.178081 -0.111334,0.360643 -0.183361,0.536337 z m -3.146619,1.966597 c 0,0 0.213705,-0.113321 0.3218,-0.167336 0.221696,-0.11073 0.47946,-0.191968 0.670488,-0.321271 0.357111,-0.241771 0.635392,-0.233748 0.965399,-0.316627 0.261435,-0.105827 0.697377,-0.246674 0.970799,-0.118353 0.08747,0.04751 0.282817,0.297135 0.356139,0.384021 0.14697,0.174139 0.391451,0.290344 0.264567,0.569953 -0.110146,0.242786 -0.389075,-0.09146 -0.581399,-0.06036 -0.153233,0.02473 -0.31856,0.122996 -0.424387,0.191287 -0.209602,0.135167 -0.109498,0.296066 -0.138439,0.4466 -0.02376,0.121927 -0.19308,0.328603 -0.30139,0.386883 -0.224936,0.121215 -0.418016,-0.1298 -0.566065,-0.202021 -0.101508,-0.04935 -0.213598,-0.04017 -0.3218,-0.04179 -0.14157,-0.0022 -0.321368,-0.01469 -0.422659,0.04179 -0.08207,0.04611 -0.134443,0.140523 -0.194808,0.166979 -0.08423,0.0365 -0.12656,-0.03402 -0.148805,-0.103667 -0.03132,-0.09762 -0.0108,-0.19308 -0.07235,-0.316443 -0.07127,-0.135513 -0.266079,-0.299631 -0.377305,-0.539555 z m 6.003186,-0.653978 c 0.179797,0.05896 0.08315,0.201298 0,0.306423 -0.14373,0.183793 -0.264243,0.525981 -0.532482,0.552081 -0.241674,0.02322 -0.254956,-0.266025 -0.152261,-0.415489 0.157013,-0.143654 0.564446,-0.414657 0.684743,-0.443015 z m -0.624378,2.501853 c 0.252472,-0.01782 0.370501,0.132305 0.532481,0.28462 0.06695,0.0636 0.44512,0.39833 0.467258,0.455898 0.05291,0.137305 -0.13034,0.320234 -0.175478,0.486641 -0.06695,0.245583 -0.06047,0.508854 -0.140167,0.750517 -0.04967,0.151192 -0.144486,0.283972 -0.209278,0.429441 -0.09935,0.223154 -0.175586,0.456059 -0.274501,0.679365 -0.05723,0.129141 -0.03456,0.301779 -0.184549,0.381516 -0.224612,0.0011 -0.732041,-0.214872 -0.904603,-0.350773 -0.06587,-0.05615 -0.04967,-0.161666 -0.05507,-0.24528 -0.01404,-0.20281 0.0378,-0.404906 0.04967,-0.607856 0.01944,-0.33491 -0.155284,-0.837198 0.03564,-1.005819 0.08531,-0.06728 0.205282,-0.03931 0.306466,-0.04967 0.215217,-0.02289 0.364346,-0.111561 0.471253,-0.303215 0.07667,-0.136581 0.07667,-0.314651 0.04643,-0.464828 -0.03132,-0.155187 -0.112954,-0.324305 0.03348,-0.44052 z M 65.224732,34.314326 c 0.05075,-0.348623 0.209621,-0.543812 0.425918,-0.78946 1.584378,-1.55141 3.212491,-3.168129 4.586511,-4.479539 0.573732,-0.590082 1.150272,-1.176632 1.745278,-1.745256 1.039046,-0.984395 2.118695,-2.019586 3.010664,-2.903401 l 0.407845,-0.389429 c 0.156581,-0.127651 0.487343,-0.07041 0.431514,0.186644 -0.04319,0.200596 -0.264596,0.352515 -0.412969,0.460501 -3.046623,3.046548 -6.309868,6.222118 -9.1511,8.921888 -0.329683,0.310364 -0.588498,0.601817 -1.043661,0.738052 z"
       id="Selection #3"
       inkscape:connector-curvature="0"
       style="fill:#a4681b;fill-opacity:1;stroke:none;stroke-width:0.0357562;stroke-opacity:1"
       sodipodi:nodetypes="ccccaaaaaacccccaaaaccaaaacccccaaaacacaaaacaccccccaacaaaaccccaaaaaaacaaaaaacccccccccccccccccccaaaascaaaaaaaccaaaaaaaaacaaaaccaaccccccacaaaaacsccaaaaaccccaaaaaaacccccaaaccaaacccccccccccccaaacaaaaaaccccccaaaaaaccccaaacccccaaacsccccccccccccccccccaaaccccccaaacccasccccaccccacccccccccccccaaaaccaaccccccccccccccccc" />
    <path
       style="fill:#a4681b;fill-opacity:1;stroke:none;stroke-width:0.0357562"
       d="m 40.359243,65.126825 c -0.965151,0.166037 -1.928055,0.292312 -2.863629,0.54539 -0.706761,0.08135 -1.330988,0.428077 -2.006713,0.599915 -0.50664,0.169027 -0.976079,0.43328 -1.489912,0.596462 -0.459525,0.317636 -1.00746,0.48105 -1.463433,0.807457 -0.489837,0.215765 -0.892605,0.570547 -1.354669,0.83601 -0.754307,0.643779 -1.607066,1.205182 -2.23302,1.985326 -0.409053,0.57319 -0.896159,1.090246 -1.243443,1.705591 -0.487991,0.686876 -1.001359,1.355605 -1.478444,2.049884 -0.519555,0.670079 -1.024932,1.344075 -1.574875,1.988917 -0.844778,1.104429 -1.847724,2.097548 -2.965493,2.923345 -0.687312,0.562697 -1.446814,0.994265 -2.256108,1.358056 -1.250365,0.380454 0.693047,0.45031 1.192322,0.357115 1.031747,0.01231 2.050081,0.0048 3.076828,-0.09441 1.138382,-0.300594 2.289745,-0.449664 3.353909,-0.951427 0.715022,-0.374603 1.467666,-0.689029 2.055804,-1.264719 0.831086,-0.658289 1.508442,-1.503719 2.185323,-2.313812 0.467528,-0.69528 0.956814,-1.370338 1.334238,-2.115828 0.200391,-0.290193 0.287201,-0.633967 0.502839,-0.914846 0.173265,-0.561785 0.427821,-1.07404 0.642811,-1.606839 0.302741,-0.742978 0.516219,-1.511687 0.844854,-2.238676 0.131744,-0.499985 0.369725,-0.957921 0.627316,-1.407071 0.371203,-0.692908 1.069034,-1.130666 1.763052,-1.433602 0.630976,-0.233677 1.258529,-0.542902 1.949988,-0.569104 0.482181,0.0046 0.95905,-0.134583 1.43621,0.0022 0.558009,-0.03028 1.96503,0.467155 1.186037,-0.538488 -0.247397,-0.459795 -0.800234,-0.310326 -1.221792,-0.306789 z m -7.973637,0.229556 c -1.667646,0.0087 -3.390474,-0.131487 -4.972767,0.514747 -2.066689,0.648186 -3.819969,2.042443 -5.123712,3.742744 -2.315695,2.842172 -3.439348,6.410462 -5.471762,9.435347 -0.756014,0.8376 -1.516574,1.705022 -2.451272,2.345411 -0.606593,0.126656 -0.886526,0.877263 -0.01998,0.470761 2.415291,-0.802513 4.953859,-1.495474 6.960691,-3.140408 1.563418,-1.245767 2.772608,-2.875584 3.975707,-4.456208 1.522685,-1.973031 2.795134,-4.176592 4.719108,-5.802685 1.196544,-0.950069 2.418325,-1.971729 3.870927,-2.493855 1.0368,-0.339867 -0.04028,-0.739247 -0.599001,-0.574378 -0.297762,0.01069 -0.59168,-0.01253 -0.887941,-0.04148 z"
       id="Selection #2"
       inkscape:connector-curvature="0" />
    <path
       d="m 77.845065,69.041954 c -0.09287,0.0065 -0.151051,-0.261392 -0.299058,-0.260842 -0.148006,5.08e-4 -0.23014,0.281489 -0.364357,0.287838 -0.134205,0.0065 -0.205779,-0.259772 -0.376873,-0.255129 -0.171094,0.0043 -0.21864,0.265852 -0.387412,0.270863 -0.168772,0.0054 -0.142132,-0.27515 -0.331594,-0.273497 -0.189463,0.0022 -0.213652,0.25271 -0.389745,0.247883 -0.176105,-0.0043 -0.127694,-0.302816 -0.413923,-0.287255 -0.286229,0.01555 -0.22039,0.299997 -0.451913,0.309338 -0.231523,0.0097 -0.211934,-0.304922 -0.411958,-0.295214 -0.200023,0.0097 -0.242602,0.245821 -0.350589,0.30625 -0.08509,0.04719 -0.180564,-0.01717 -0.311076,-0.0297 -0.434441,-0.04179 -0.341832,0.296056 -0.643611,0.341831 -0.258876,0.03931 -0.295742,-0.162746 -0.438371,-0.252796 -0.144777,-0.09146 -0.274242,-0.206643 -0.422994,-0.291424 -0.206697,-0.11778 -0.418199,-0.237397 -0.647908,-0.299273 -0.864497,-0.232906 -1.780039,-0.296369 -2.67421,-0.251015 -0.422109,0.02138 -0.842403,0.113753 -1.243951,0.245648 -0.201611,0.06619 -0.395965,0.158761 -0.576032,0.271035 -0.316811,0.197518 -0.63292,0.415251 -0.874237,0.700109 -0.183815,0.216956 -0.355071,0.466815 -0.416569,0.744437 -0.08034,0.362554 -0.09794,0.786444 0.08261,1.110944 0.05788,0.103991 0.296131,0.09146 0.28855,0.21025 -0.01155,0.181579 -0.297891,0.240021 -0.478412,0.262806 -0.280668,0.03542 -0.561649,-0.100427 -0.822037,-0.210962 -0.286261,-0.12155 -0.537157,-0.314511 -0.7945,-0.489136 -0.282676,-0.191827 -0.57127,-0.380134 -0.82168,-0.61251 -0.57817,-0.536531 -1.030429,-1.194525 -1.55182,-1.786378 -0.09514,-0.107986 -0.189721,-0.216297 -0.287482,-0.32181 -0.137261,-0.148158 -0.274501,-0.296628 -0.419776,-0.436935 -0.101723,-0.09827 -0.207841,-0.192119 -0.316087,-0.283195 -0.126549,-0.106474 -0.248509,-0.220843 -0.389378,-0.307502 -0.22283,-0.137067 -0.450498,-0.320051 -0.711911,-0.330385 -0.2984,-0.01177 -0.612197,0.11858 -0.839909,0.31179 -0.174063,0.147693 -0.28111,0.374 -0.339682,0.594627 -0.21715,0.817901 0.0419,1.693499 0,2.538698 -0.0054,0.107123 0.0086,0.220973 -0.03186,0.320375 -0.03682,0.0906 -0.117511,0.156656 -0.18308,0.22919 -0.209278,0.231534 -0.420338,0.466437 -0.668998,0.655057 -0.132305,0.10032 -0.298896,0.149 -0.431579,0.248866 -0.179668,0.135242 -0.349509,0.289339 -0.485561,0.468402 -0.100428,0.132186 -0.202605,0.275614 -0.237063,0.438015 -0.0554,0.260906 -0.05734,0.559316 0.0622,0.797718 0.07376,0.147077 0.232117,0.237603 0.371506,0.325028 0.207442,0.130103 0.43998,0.222463 0.676147,0.287126 0.556238,0.152271 1.139387,0.191654 1.714869,0.22919 0.368698,0.02408 0.740225,0.02765 1.108449,-0.0032 0.349066,-0.02894 0.688068,-0.138785 1.036929,-0.170209 0.700465,-0.06306 1.413824,-0.13833 2.109614,-0.03574 0.309511,0.04568 0.598601,0.182745 0.893901,0.286056 0.217129,0.07592 0.441104,0.138871 0.645047,0.245281 0.208209,0.108634 0.607856,0.16347 0.582112,0.396893 -0.02289,0.207323 -0.46431,0.05875 -0.581399,0.23135 -0.224612,0.331109 -0.02818,0.801217 0,1.200335 0.0086,0.117554 0.01847,0.236426 0.04967,0.350049 0.05864,0.212766 0.144195,0.420241 0.255648,0.610718 0.182151,0.311282 0.406871,0.601701 0.665423,0.853137 0.157984,0.153632 0.338657,0.28692 0.532417,0.391893 0.201319,0.109067 0.421439,0.184193 0.643254,0.240994 0.127262,0.03261 0.25906,0.04676 0.390101,0.05615 0.427972,0.03067 0.861182,0.05097 1.287221,0 0.460195,-0.05507 0.906881,-0.196104 1.351224,-0.32789 0.255615,-0.07581 0.502181,-0.179388 0.754459,-0.265669 0.26272,-0.08984 0.513022,-0.270452 0.790569,-0.26245 0.219083,0.0065 0.398535,0.189225 0.611074,0.242786 0.115297,0.02905 0.236404,0.02592 0.354347,0.04114 0.370091,0.04751 0.73731,0.117662 1.108438,0.156256 0.261392,0.02721 0.52664,0.09125 0.786639,0.05291 0.24933,-0.03672 0.474784,-0.169885 0.707614,-0.266381 0.20553,-0.0852 0.400003,-0.196331 0.607856,-0.275679 0.282374,-0.107771 0.575708,-0.184474 0.865296,-0.271036 0.273205,-0.08164 0.537805,-0.223467 0.822749,-0.234201 0.401202,-0.01512 0.796379,0.123127 1.179957,0.241717 0.217615,0.06728 0.509297,0.07149 0.630026,0.264589 0.05669,0.09082 0.06382,0.251587 -0.01793,0.320644 -0.101939,0.08606 -0.265074,-0.02959 -0.397552,-0.04492 -0.393449,-0.04557 -0.783896,-0.13534 -1.179958,-0.140156 -0.526218,-0.0065 -1.06601,0.0032 -1.57184,0.148028 -0.217269,0.06242 -0.419884,0.176072 -0.606064,0.304284 -0.141808,0.09762 -0.275776,0.212464 -0.38116,0.348624 -0.240194,0.310321 -0.533669,0.648135 -0.551368,1.040148 -0.01469,0.324726 0.140998,0.675984 0.377229,0.899268 0.169474,0.160176 0.427216,0.211578 0.659344,0.233845 0.407703,0.03909 0.826723,-0.0527 1.214999,-0.18307 0.226772,-0.07613 0.429582,-0.212906 0.630382,-0.3429 0.404075,-0.261597 0.771974,-0.575503 1.148847,-0.874961 0.415198,-0.329909 0.734902,-0.812555 1.22501,-1.015116 0.154863,-0.06404 0.333279,-0.03682 0.500582,-0.04611 0.499902,-0.02797 1.002504,0.0076 1.501769,-0.0297 0.239751,-0.01814 0.476749,-0.06296 0.715119,-0.09438 0.286045,-0.0378 0.579315,-0.0392 0.858147,-0.113353 0.214828,-0.05712 0.601765,-0.03099 0.617153,-0.252797 0.0076,-0.113645 -0.19403,-0.119875 -0.295343,-0.171979 -0.373881,-0.192281 -0.780731,-0.316919 -1.150283,-0.517396 -0.219461,-0.119055 -0.439526,-0.243714 -0.630025,-0.405122 -0.174658,-0.147985 -0.310991,-0.336097 -0.461254,-0.508811 -0.145512,-0.16726 -0.287881,-0.337339 -0.426212,-0.510592 -0.113483,-0.142143 -0.235832,-0.278789 -0.331097,-0.433728 -0.13088,-0.21282 -0.270636,-0.431179 -0.326454,-0.674711 -0.06393,-0.278821 -0.05194,-0.576863 0,-0.858157 0.0555,-0.300646 0.16131,-0.600114 0.327523,-0.856711 0.145663,-0.224872 0.340308,-0.427379 0.567804,-0.568884 0.288075,-0.179182 0.629248,-0.271316 0.963995,-0.326454 0.282244,-0.04654 0.57221,-0.0076 0.858147,0 0.308215,0.0086 0.842327,-0.246307 0.923576,0.05108 0.07106,0.260302 -0.41646,0.366658 -0.673285,0.449451 -0.488088,0.157347 -1.059952,-0.132866 -1.537511,0.05399 -0.246501,0.09643 -0.465185,0.291391 -0.601788,0.518109 -0.195585,0.324629 -0.262083,0.729557 -0.253152,1.108438 0.0065,0.295257 0.106582,0.588883 0.237786,0.853504 0.217301,0.438447 0.539241,0.825427 0.886753,1.169947 0.236998,0.234957 0.518691,0.42321 0.803084,0.597846 0.344175,0.211351 0.703608,0.406386 1.08493,0.539522 0.571378,0.199484 1.170379,0.376765 1.775568,0.379054 0.498887,0.0022 1.028043,-0.19363 1.466003,-0.301433 0.38197,-0.09416 0.76326,-0.192367 1.13955,-0.307146 0.254524,-0.07764 0.508162,-0.159723 0.755527,-0.257796 0.238845,-0.09471 0.47256,-0.202723 0.701891,-0.318593 0.161828,-0.08175 0.324726,-0.163632 0.474838,-0.265312 0.13872,-0.09395 0.303097,-0.173491 0.390468,-0.316433 0.07365,-0.120459 0.0852,-0.273271 0.08725,-0.41442 0.0022,-0.162282 0.03164,-0.367845 -0.0865,-0.479136 -0.04233,-0.03995 -0.116085,-0.03088 -0.173415,-0.02073 -0.197432,0.03477 -0.356809,0.182929 -0.536704,0.271391 -0.214558,0.105503 -0.430121,0.209041 -0.647185,0.309285 -0.212549,0.09816 -0.423307,0.201103 -0.641472,0.286056 -0.303939,0.118342 -0.605027,0.357219 -0.927874,0.31072 -0.146149,-0.02106 -0.279458,-0.131948 -0.363277,-0.253509 -0.04093,-0.05928 -0.08315,-0.144345 -0.05259,-0.209537 0.09924,-0.211535 0.421428,-0.201935 0.631819,-0.303572 0.190887,-0.09222 0.378535,-0.191352 0.572101,-0.277827 0.234903,-0.104963 0.471534,-0.207237 0.714407,-0.292125 0.257882,-0.09017 0.566313,-0.06836 0.786638,-0.229914 0.08261,-0.06058 0.153179,-0.154432 0.17091,-0.255302 0.01274,-0.07257 -0.01209,-0.153255 -0.05291,-0.214537 -0.115438,-0.173059 -0.336119,-0.245259 -0.502008,-0.370782 -0.109077,-0.0825 -0.217301,-0.166202 -0.324316,-0.251371 C 89.28783,74.015996 89.123583,73.86692 88.946841,73.733697 88.401283,73.322496 87.845843,72.921693 87.263073,72.565186 87.090683,72.459683 86.906879,72.374147 86.728518,72.27913 86.359409,72.082497 85.992871,71.880865 85.62008,71.691305 85.232116,71.494025 84.845611,71.29249 84.446202,71.11956 83.954625,70.906719 83.453158,70.715291 82.944444,70.547458 82.62705,70.442711 82.302896,70.359292 81.979023,70.276779 81.505502,70.156148 81.034454,70.014394 80.55021,69.9489 80.301939,69.91532 80.046,69.96013 79.799326,69.9164 79.566583,69.87515 79.31802,69.83584 79.123536,69.701507 78.882272,69.534841 78.798637,69.20438 78.577535,69.011765 c -0.11208,-0.09762 -0.235141,-0.227193 -0.384292,-0.226243 -0.14914,9.07e-4 -0.255345,0.249568 -0.348213,0.256101 z m 8.820921,4.391033 c 0.283724,-0.02257 0.591799,0.249255 0.676503,0.52097 0.05896,0.189031 -0.02127,0.448965 -0.181277,0.565666 -0.151753,0.110719 -0.39847,0.08963 -0.563527,0 -0.209732,-0.113936 -0.411235,-0.362986 -0.389734,-0.600707 0.02009,-0.221686 0.236144,-0.468284 0.458035,-0.485929 z"
       id="Selection #1"
       inkscape:connector-curvature="0"
       style="fill:#ffffff;fill-opacity:1;stroke:none;stroke-width:0.0357562"
       sodipodi:nodetypes="zzzzzzzzzzcccaaaaaaaaaaaaaaaaaaaaaaaaaaaaaaaaaaaaaaaaaaaaaaaaaaaaaaaaaaaaaaaaaaaaaaaaaaaaaaaaaaaaaaaaaaaaaaaaaaaaacaaaaaaaaaaaaaaaaaaaaaaaaaaaaaaaaazzaaaaaa" />
  </g>
</svg>
