<?xml version="1.0" encoding="UTF-8" standalone="no"?>
<!-- Created with Inkscape (http://www.inkscape.org/) -->

<svg
   xmlns="http://www.w3.org/2000/svg"
   width="110"
   height="110"
   viewBox="0 0 29.104166 29.104167"
   version="1.1"
   id="svg19093">
  <g
     id="layer1"
     transform="translate(0,-267.89582)">
    <rect
       style="display:inline;opacity:1;fill:#8abfec;fill-opacity:1;stroke:none;stroke-width:0.30182102;stroke-opacity:1"
       id="rect4518-8-4-7-0-2"
       width="29.104166"
       height="29.104166"
       x="0"
       y="267.89581"
       rx="14.552083"
       ry="14.552083" />
    <rect
       style="display:inline;opacity:1;fill:#0073cf;fill-opacity:1;stroke:none;stroke-width:0.2743828;stroke-opacity:1"
       id="rect4518-8-4-7-0-0"
       width="26.458334"
       height="26.458334"
       x="1.3229166"
       y="269.21875"
       rx="13.229167"
       ry="13.229167" />
    <rect
       style="display:inline;opacity:1;fill:#8abfec;fill-opacity:1;stroke:none;stroke-width:0.21950617;stroke-opacity:1"
       id="rect4518-85-4-5"
       width="21.166666"
       height="21.166666"
       x="3.96875"
       y="271.86456"
       rx="10.583333"
       ry="10.583333" />
    <rect
       style="display:inline;opacity:1;fill:#925214;fill-opacity:1;stroke:none;stroke-width:0.19206792;stroke-opacity:1"
       id="rect4518-8-4-7-0-8"
       width="18.520834"
       height="18.520834"
       x="5.2916665"
       y="273.1875"
       rx="9.260417"
       ry="9.260417" />
    <path
       style="display:inline;opacity:1;fill:#8abfec;fill-opacity:1;stroke:none;stroke-width:0.23597811;stroke-opacity:1"
       d="m 15.385656,278.58903 c -0.841123,0 -2.171989,2.26517 -2.173511,2.78239 -0.0015,0.51721 1.557047,1.67028 1.557047,2.0176 0,0.34731 -0.03874,0.65704 -0.474943,0.65704 -0.436195,0 -1.959014,-3.09711 -2.420007,-3.09709 -0.460993,1e-5 -3.6982813,3.45989 -3.2753803,4.19237 0.422901,0.73249 11.5916323,0.54493 11.9062493,0 0.314618,-0.54493 -4.278334,-6.55231 -5.119455,-6.55231 z"
       id="rect4563" />
  </g>
</svg>
