<?xml version="1.0" encoding="UTF-8" standalone="no"?>
<!-- Created with Inkscape (http://www.inkscape.org/) -->

<svg
   xmlns:dc="http://purl.org/dc/elements/1.1/"
   xmlns:cc="http://creativecommons.org/ns#"
   xmlns:rdf="http://www.w3.org/1999/02/22-rdf-syntax-ns#"
   xmlns:svg="http://www.w3.org/2000/svg"
   xmlns="http://www.w3.org/2000/svg"
   xmlns:sodipodi="http://sodipodi.sourceforge.net/DTD/sodipodi-0.dtd"
   xmlns:inkscape="http://www.inkscape.org/namespaces/inkscape"
   width="80"
   height="80"
   viewBox="0 0 21.166666 21.166667"
   version="1.1"
   id="svg19093"
   inkscape:version="0.92.4 (5da689c313, 2019-01-14)"
   sodipodi:docname="icon-staff-gauge.svg">
  <defs
     id="defs19087" />
  <sodipodi:namedview
     id="base"
     pagecolor="#ffffff"
     bordercolor="#666666"
     borderopacity="1.0"
     inkscape:pageopacity="0.0"
     inkscape:pageshadow="2"
     inkscape:zoom="3.959798"
     inkscape:cx="125.03217"
     inkscape:cy="-8.4454236"
     inkscape:document-units="px"
     inkscape:current-layer="layer1"
     showgrid="false"
     units="px"
     inkscape:pagecheckerboard="true"
     inkscape:window-width="1920"
     inkscape:window-height="1147"
     inkscape:window-x="1912"
     inkscape:window-y="-8"
     inkscape:window-maximized="1" />
  <metadata
     id="metadata19090">
    <rdf:RDF>
      <cc:Work
         rdf:about="">
        <dc:format>image/svg+xml</dc:format>
        <dc:type
           rdf:resource="http://purl.org/dc/dcmitype/StillImage" />
        <dc:title></dc:title>
      </cc:Work>
    </rdf:RDF>
  </metadata>
  <g
     inkscape:label="Layer 1"
     inkscape:groupmode="layer"
     id="layer1"
     transform="translate(0,-275.83332)">
    <rect
       style="display:inline;opacity:1;fill:#ffffff;fill-opacity:1;stroke:none;stroke-width:0.21950617;stroke-opacity:1"
       id="rect4518-85-4"
       width="21.166666"
       height="21.166666"
       x="-2.8421709e-14"
       y="275.83331"
       rx="10.583333"
       ry="10.583333" />
    <rect
       style="display:inline;opacity:1;fill:#4e79a7;fill-opacity:1;stroke:none;stroke-width:0.19206792;stroke-opacity:1"
       id="rect4518-8-4-7-0-2"
       width="18.520834"
       height="18.520834"
       x="1.3229218"
       y="277.15619"
       rx="9.260417"
       ry="9.260417" />
    <path
       inkscape:connector-curvature="0"
       style="display:inline;opacity:1;fill:#ffffff;fill-opacity:1;stroke:none;stroke-width:0.13229166;stroke-opacity:1"
       d="m 5.9531444,284.29995 c -2.25224,0 -2.51753,2.11666 -4.89479,2.11666 l 0.26458,2.11667 c 2.36399,0 2.93318,-2.11667 4.63021,-2.11667 1.69702,0 2.26621,2.11667 4.6301996,2.11667 2.364,0 2.8417,-2.11667 4.63021,-2.11667 1.85532,0 2.26622,2.11667 4.63021,2.11667 l 0.26459,-2.11667 c -2.37726,0 -2.64257,-2.11666 -4.8948,-2.11666 -2.25223,0 -2.65385,2.11667 -4.63021,2.11667 -1.9095396,0 -2.3779696,-2.11667 -4.6301996,-2.11667 z"
       id="rect6560-6-4-2-1-4"
       sodipodi:nodetypes="sccassccsss" />
    <path
       inkscape:connector-curvature="0"
       style="display:inline;opacity:1;fill:#ffffff;fill-opacity:1;stroke:none;stroke-width:0.28868407;stroke-opacity:1"
       d="m 9.2604344,279.27287 v 8.33075 c 0.37654,0.23512 0.7935996,0.4005 1.3229096,0.4005 0.53388,0 0.95135,-0.15695 1.32292,-0.38241 v -0.41134 h -1.21595 v -0.79375 h 1.21595 v -0.79375 h -1.21595 v -0.79375 h 1.21595 v -0.79375 h -1.21595 v -0.79375 h 1.21595 v -0.79375 h -1.21595 v -0.79375 h 1.21595 v -0.79427 h -1.21595 v -0.79375 h 1.21595 v -0.79323 z m 0,10.58384 v 6.08491 h 2.6458296 v -0.79375 h -1.21595 v -0.79375 h 1.21595 v -0.79375 h -1.21595 v -0.79375 h 1.21595 v -0.79375 h -1.21595 v -0.79375 h 1.21595 v -0.79375 h -1.21595 v -0.27079 c -0.0366,0.001 -0.0695,0.006 -0.10697,0.006 -0.51809,0 -0.9464696,-0.10529 -1.3229096,-0.26407 z"
       id="rect8773-0-5" />
  </g>
</svg>
