<?xml version="1.0" encoding="UTF-8" standalone="no"?>
<!-- Created with Inkscape (http://www.inkscape.org/) -->

<svg
   xmlns:dc="http://purl.org/dc/elements/1.1/"
   xmlns:cc="http://creativecommons.org/ns#"
   xmlns:rdf="http://www.w3.org/1999/02/22-rdf-syntax-ns#"
   xmlns:svg="http://www.w3.org/2000/svg"
   xmlns="http://www.w3.org/2000/svg"
   xmlns:sodipodi="http://sodipodi.sourceforge.net/DTD/sodipodi-0.dtd"
   xmlns:inkscape="http://www.inkscape.org/namespaces/inkscape"
   width="75"
   height="75"
   viewBox="0 0 19.84375 19.843751"
   version="1.1"
   id="svg15374"
   inkscape:version="0.92.4 (5da689c313, 2019-01-14)"
   sodipodi:docname="icon-benchmark.svg">
  <defs
     id="defs15368" />
  <sodipodi:namedview
     id="base"
     pagecolor="#ffffff"
     bordercolor="#666666"
     borderopacity="1.0"
     inkscape:pageopacity="0.0"
     inkscape:pageshadow="2"
     inkscape:zoom="1.979899"
     inkscape:cx="-9.1135471"
     inkscape:cy="32.199778"
     inkscape:document-units="px"
     inkscape:current-layer="layer1"
     showgrid="false"
     units="px"
     inkscape:pagecheckerboard="true"
     inkscape:window-width="940"
     inkscape:window-height="528"
     inkscape:window-x="274"
     inkscape:window-y="383"
     inkscape:window-maximized="0" />
  <metadata
     id="metadata15371">
    <rdf:RDF>
      <cc:Work
         rdf:about="">
        <dc:format>image/svg+xml</dc:format>
        <dc:type
           rdf:resource="http://purl.org/dc/dcmitype/StillImage" />
        <dc:title></dc:title>
      </cc:Work>
    </rdf:RDF>
  </metadata>
  <g
     inkscape:label="Layer 1"
     inkscape:groupmode="layer"
     id="layer1"
     transform="translate(0,-277.15624)">
    <rect
       style="display:inline;opacity:1;fill:#ffffff;fill-opacity:1;stroke:none;stroke-width:0.20578705;stroke-opacity:1"
       id="rect4518-85-9-8-1-0"
       width="19.84375"
       height="19.84375"
       x="-1.7763568e-15"
       y="277.15625" />
    <rect
       style="display:inline;opacity:1;fill:#808080;fill-opacity:1;stroke:none;stroke-width:0.17834876;stroke-opacity:1"
       id="rect4518-8-4-5-38-2-5"
       width="17.197918"
       height="17.197918"
       x="1.3229218"
       y="278.47919" />
    <path
       inkscape:connector-curvature="0"
       style="display:inline;opacity:1;fill:#ffffff;fill-opacity:1;stroke:none;stroke-width:0.13229166;stroke-opacity:1"
       d="m 5.2916655,287.87188 c -2.25224,0 -2.51753,2.11666 -4.89479047,2.11666 l 0.26458,2.11667 c 2.36399037,0 2.93318037,-2.11667 4.63021047,-2.11667 1.6970201,0 2.26621,2.11667 4.6302003,2.11667 2.3639992,0 2.8416992,-2.11667 4.6302092,-2.11667 1.855321,0 2.266221,2.11667 4.630211,2.11667 l 0.26459,-2.11667 c -2.37726,0 -2.64257,-2.11666 -4.894801,-2.11666 -2.252229,0 -2.65385,2.11667 -4.6302092,2.11667 -1.9095403,0 -2.3779703,-2.11667 -4.6302003,-2.11667 z"
       id="rect6560-6-4-2-1-4-9"
       sodipodi:nodetypes="sccassccsss" />
    <path
       inkscape:connector-curvature="0"
       style="display:inline;opacity:1;fill:#ffffff;fill-opacity:1;stroke:none;stroke-width:0.22111517;stroke-opacity:1"
       d="m 8.0697895,280.46353 v 1.5875 h 0.79375 v 2.37247 l -2.9450401,5.10098 c 0.3880776,0.0775 0.7194789,0.2204 1.0154418,0.4005 l 1.9295983,-3.60391 v 5.00176 c 0.3084645,0.15261 0.6493299,0.2532 1.0583334,0.2532 0.4113981,0 0.7525091,-0.095 1.0583331,-0.24029 v -4.86378 l 1.871721,3.49641 c 0.291237,-0.18851 0.616426,-0.34239 1.000971,-0.42995 l -2.872692,-4.97541 v -2.51198 h 0.79375 v -1.5875 z m -2.778125,11.1125 c -0.2230782,0 -0.4257623,0.0383 -0.6165004,0.10182 l -2.6907911,4.66068 1.3745922,0.26459 2.6215473,-4.89686 c -0.2118069,-0.0795 -0.4368853,-0.13023 -0.688848,-0.13023 z m 9.2604165,0 c -0.282919,0 -0.530704,0.0571 -0.760677,0.14624 l 2.61276,4.88085 1.374593,-0.26459 -2.712495,-4.69841 c -0.160237,-0.0382 -0.328385,-0.0641 -0.514181,-0.0641 z m -3.571875,1.94924 c -0.309507,0.10229 -0.654801,0.16743 -1.0583331,0.16743 -0.4006744,0 -0.7465483,-0.0644 -1.0583334,-0.16536 v 2.54661 h 2.1166665 z"
       id="rect8773-0-6" />
  </g>
</svg>
