<?xml version="1.0" encoding="UTF-8" standalone="no"?>
<svg
   xmlns="http://www.w3.org/2000/svg"
   id="svg15374"
   version="1.1"
   viewBox="0 0 19.84375 19.843751"
   height="75"
   width="75">
  <g
     transform="translate(0,-277.15624)"
     id="layer1">
    <rect
       y="277.15625"
       x="1.7763568e-15"
       height="19.84375"
       width="19.84375"
       id="rect4518-85-9-8-1-0-7"
       style="display:inline;opacity:1;fill:#ffffff;fill-opacity:1;stroke:none;stroke-width:0.20578705;stroke-opacity:1" />
    <rect
       y="278.47919"
       x="1.3229218"
       height="17.197918"
       width="17.197918"
       id="rect4518-8-4-5-38-2-5-0"
       style="display:inline;opacity:1;fill:#000000;fill-opacity:1;stroke:none;stroke-width:0.17834876;stroke-opacity:1" />
    <path
       id="path11244"
       d="m 9.4687101,280.99264 c 0,0 -0.517559,0.32325 -0.517559,0.677 0,0.16009 0.0077,0.50997 0.01382,0.83957 -0.106283,0.17303 -0.162725,0.37189 -0.163137,0.57477 1.28e-4,0.005 2.44e-4,0.01 4.76e-4,0.0144 -0.09751,0.0511 -0.193338,0.10622 -0.288116,0.16925 -0.780342,-0.021 -1.613099,-0.42101 -1.680514,-0.60615 -0.07841,-0.21534 0.423285,-0.43033 0.470334,-0.81484 0.04704,-0.38455 -0.31344,-0.46216 -0.580047,-0.36988 -0.266609,0.0923 -0.752898,0.92308 -0.79995,1.19994 -0.04705,0.27688 0.338311,0.60368 0.956411,0.89235 0.302228,0.14112 0.642131,0.25037 0.911091,0.32565 -0.08273,0.0904 -0.163656,0.18587 -0.24232,0.28572 -0.290382,0.0226 -0.580914,0.0223 -0.819986,-0.0246 -0.809313,-0.15904 -1.022827,-0.57857 -1.191098,-0.99553 -0.168275,-0.41696 -0.615648,-0.32731 -0.771329,0.0125 -0.155679,0.33961 0.355309,1.13637 0.908708,1.51278 0.347418,0.22552 0.872507,0.29066 1.34279,0.29523 -0.03178,0.0569 -0.06242,0.11531 -0.09301,0.174 -0.362466,0.11299 -0.788464,0.22586 -1.155801,0.2648 -0.820616,0.087 -1.175624,-0.3917 -1.46395,-0.73975 -0.288326,-0.34803 -0.687381,-0.13015 -0.731738,0.23962 -0.04435,0.36981 0.687677,0.97849 1.330864,1.17426 0.371267,0.11302 1.069247,0.081 1.597991,0.0337 -0.03365,0.094 -0.06554,0.18911 -0.09636,0.28572 -0.515633,0.18049 -1.708046,0.70431 -2.189487,1.83416 -0.621009,1.45742 0.377106,3.11045 0.665431,3.34976 0.288324,0.23927 0.776082,-0.0433 0.554291,-0.60902 -0.221785,-0.56552 -0.709779,-1.26141 -0.576708,-2.08801 0.104685,-0.65025 0.717065,-1.16406 1.243569,-1.23797 -0.08859,0.52249 -0.136901,1.06826 -0.136901,1.62733 0,2.04229 1.868276,3.87414 3.950614,3.87414 2.0823369,0 3.9496599,-1.83185 3.9496599,-3.87414 0,-0.55778 -0.04859,-1.10305 -0.137855,-1.62592 0.524917,0.0775 1.132195,0.58918 1.236415,1.23656 0.133074,0.8266 -0.354925,1.52249 -0.576708,2.08801 -0.221788,0.56558 0.266445,0.84875 0.554767,0.60949 0.288324,-0.23929 1.285964,-1.89281 0.664953,-3.35023 -0.479348,-1.12495 -1.663991,-1.65002 -2.183284,-1.83272 -0.03126,-0.0977 -0.06362,-0.19362 -0.09779,-0.2886 0.530238,0.0478 1.237786,0.0816 1.6123,-0.0323 0.643191,-0.19578 1.374748,-0.80445 1.330388,-1.17426 -0.04435,-0.3698 -0.443412,-0.58765 -0.731738,-0.23962 -0.288326,0.34805 -0.643334,0.82678 -1.46395,0.73975 -0.37346,-0.0396 -0.80773,-0.15613 -1.173927,-0.27098 -0.02962,-0.0566 -0.05944,-0.11283 -0.09015,-0.16782 0.473895,-0.004 1.006629,-0.0674 1.357579,-0.29523 0.553398,-0.37641 1.064862,-1.17268 0.909183,-1.51229 -0.155682,-0.33961 -0.60353,-0.4302 -0.771805,-0.0134 -0.168274,0.41697 -0.381788,0.83695 -1.1911,0.99599 -0.243415,0.0478 -0.540079,0.0467 -0.835724,0.0229 -0.07931,-0.1006 -0.160811,-0.19618 -0.24423,-0.28713 0.2674,-0.0752 0.601545,-0.1834 0.90012,-0.32281 0.6181,-0.28869 1.003459,-0.61503 0.95641,-0.89188 -0.04704,-0.27686 -0.532864,-1.10718 -0.799473,-1.19946 -0.06664,-0.0231 -0.138835,-0.0359 -0.209408,-0.0358 -0.211714,0 -0.405925,0.11619 -0.370639,0.40457 0.04704,0.38453 0.549225,0.6 0.470813,0.81534 -0.06704,0.18406 -0.890691,0.58012 -1.66716,0.6052 -0.09719,-0.0647 -0.19619,-0.12071 -0.296224,-0.17256 1.7e-5,-0.004 1.7e-5,-0.008 0,-0.0105 -9.53e-4,-0.20554 -0.05946,-0.40673 -0.168861,-0.58096 0.006,-0.32756 0.01431,-0.67541 0.01431,-0.83341 0,-0.35376 -0.517082,-0.67652 -0.517082,-0.67652 0.260381,0.95308 -0.4369439,1.15337 -0.4369439,1.15337 0,0 -0.701617,-0.20029 -0.441236,-1.15337 z m 0.438373,2.78356 c 0.8819449,-2e-5 2.5372099,1.53237 1.7253549,1.99957 -0.677795,0.3901 -0.7726,-1.12149 -1.7253549,-1.12149 -0.952749,0 -1.009535,1.53318 -1.724876,1.12149 -0.811855,-0.4672 0.842971,-1.99954 1.724876,-1.99957 z m 0,6.98287 c 1.4551019,0.0239 2.1065979,-2.28235 2.7633329,-1.62782 0.656735,0.65453 -1.237441,2.75359 -2.7633329,2.75359 -1.525891,0 -3.409586,-2.10903 -2.762854,-2.75359 0.646731,-0.64455 1.307752,1.60383 2.762854,1.62782 z"
       style="display:inline;opacity:1;fill:#ffffff;fill-opacity:1;stroke:none;stroke-width:0.2670275;stroke-miterlimit:4;stroke-dasharray:none;stroke-opacity:1" />
  </g>
</svg>
