<?xml version="1.0" encoding="UTF-8" standalone="no"?>
<!-- Created with Inkscape (http://www.inkscape.org/) -->

<svg
   xmlns="http://www.w3.org/2000/svg"
   width="100"
   height="100"
   viewBox="0 0 26.458333 26.458334"
   version="1.1"
   id="svg17343">
  <g
     id="layer1"
     transform="translate(0,-270.54165)">
    <rect
       style="display:inline;opacity:1;fill:#ffffff;fill-opacity:1;stroke:none;stroke-width:0.19401787;stroke-opacity:1"
       id="rect4518-85-9-8-83"
       width="18.708866"
       height="18.708866"
       x="200.65627"
       y="181.94742"
       transform="rotate(44.999998)" />
    <path
       style="display:inline;opacity:1;fill:#808080;fill-opacity:1;stroke:none;stroke-width:0.16491526;stroke-opacity:1"
       d="m 13.22917,272.52606 -11.2447921,11.2448 4.630209,4.6302 v -5.95312 -1.85208 h 3.175 v -2.11667 h 1.3229171 v 2.11667 h 8.73125 v 1.85208 5.95312 l 4.630208,-4.6302 z m -5.0270831,9.6573 v 7.14375 h 1.5875 v -5.29167 h 2.3812501 v 5.29167 h 6.085417 v -7.14375 z m 0.926041,8.73125 4.1010421,4.10104 4.101042,-4.10104 z"
       id="rect4518-8-4-5-38-6" />
    <rect
       style="display:inline;opacity:1;fill:#ffffff;fill-opacity:1;stroke:none;stroke-width:0.06666873;stroke-opacity:1"
       id="rect8773-0-7-7-7-4-2"
       width="2.6458333"
       height="1.0583333"
       x="284.03546"
       y="-14.552087"
       transform="rotate(90)" />
    <rect
       style="display:inline;opacity:1;fill:#ffffff;fill-opacity:1;stroke:none;stroke-width:0.06666873;stroke-opacity:1"
       id="rect8773-0-7-7-7-4-2-0"
       width="2.6458333"
       height="1.0583333"
       x="284.03546"
       y="-16.801044"
       transform="rotate(90)" />
    <path
       style="display:inline;opacity:1;fill:#ffffff;fill-opacity:1;stroke:none;stroke-width:0.16330439;stroke-opacity:1"
       d="m 15.74788,289.72811 -4.328935,4.32944 0.561209,0.56121 4.328934,-4.32944 z"
       id="rect8773-0-4-6-2-3-7" />
    <path
       style="display:inline;opacity:1;fill:#ffffff;fill-opacity:1;stroke:none;stroke-width:0.16330439;stroke-opacity:1"
       d="m 12.628692,289.85368 -2.7068131,2.70681 0.5612061,0.5612 2.706812,-2.7068 z"
       id="rect8773-0-4-6-2-8-1-4" />
  </g>
</svg>
