<?xml version="1.0" encoding="UTF-8" standalone="no"?>
<!-- Created with Inkscape (http://www.inkscape.org/) -->

<svg
   xmlns="http://www.w3.org/2000/svg"
   width="80"
   height="80"
   viewBox="0 0 21.166666 21.166667"
   version="1.1"
   id="svg19093">
  <g
     id="layer1"
     transform="translate(0,-275.83332)">
    <rect
       style="display:inline;opacity:1;fill:#ffffff;fill-opacity:1;stroke:none;stroke-width:0.21950617;stroke-opacity:1"
       id="rect4518-85-4-79"
       width="21.166666"
       height="21.166666"
       x="-5.5511151e-17"
       y="275.83331"
       rx="10.583333"
       ry="10.583333" />
    <rect
       style="display:inline;opacity:1;fill:#472a0f;fill-opacity:1;stroke:none;stroke-width:0.19206792;stroke-opacity:1"
       id="rect4518-8-4-7-0-4"
       width="18.520834"
       height="18.520834"
       x="1.3229064"
       y="277.15625"
       rx="9.260417"
       ry="9.260417" />
    <path
       style="display:inline;opacity:1;fill:#ffffff;fill-opacity:1;stroke:none;stroke-width:0.18505871;stroke-opacity:1"
       d="m 12.699998,285.14327 c 0,1.28779 -1.00691,2.33175 -2.24898,2.33175 -1.2420597,0 -2.2489398,-1.04396 -2.2489398,-2.33175 0,-1.28781 1.5806102,-4.28283 2.2489398,-4.28283 0.66837,0 2.24898,2.99502 2.24898,4.28283 z"
       id="path4678-5-9-9-7" />
    <path
       style="display:inline;opacity:1;fill:#ffffff;fill-opacity:1;stroke:none;stroke-width:0.16330439;stroke-opacity:1"
       d="m 17.21548,290.85725 -5.425509,5.42499 c 0.457817,-0.0302 0.892969,-0.0926 1.305346,-0.18241 l 5.242573,-5.24258 z"
       id="rect8773-0-3-7" />
    <path
       style="display:inline;opacity:1;fill:#ffffff;fill-opacity:1;stroke:none;stroke-width:0.16330439;stroke-opacity:1"
       d="m 5.2415336,290.85725 -2.0665413,2.06654 c 0.1611762,0.19371 0.3343063,0.39019 0.5332995,0.58911 l 2.655652,-2.65565 z"
       id="rect8773-0-3-4-9" />
    <path
       style="display:inline;opacity:1;fill:#ffffff;fill-opacity:1;stroke:none;stroke-width:0.16330439;stroke-opacity:1"
       d="m 8.2351485,290.85725 -3.5201992,3.51968 c 0.210021,0.15469 0.4335939,0.30569 0.6728275,0.45062 l 3.9697845,-3.9703 z"
       id="rect8773-0-3-5-23-6" />
    <path
       style="display:inline;opacity:1;fill:#ffffff;fill-opacity:1;stroke:none;stroke-width:0.16330439;stroke-opacity:1"
       d="m 11.228763,290.85725 -4.5997173,4.59972 c 0.2602018,0.10882 0.53399,0.20966 0.821137,0.30127 l 4.9009933,-4.90099 z"
       id="rect8773-0-3-5-2-7-7" />
    <path
       style="display:inline;opacity:1;fill:#ffffff;fill-opacity:1;stroke:none;stroke-width:0.16330439;stroke-opacity:1"
       d="m 14.221862,290.85725 -5.2632421,5.26325 c 0.3180821,0.0541 0.6489567,0.0975 0.9942535,0.12816 l 5.3914016,-5.39141 z"
       id="rect8773-0-3-5-6-4-4" />
    <rect
       style="display:inline;opacity:1;fill:#ffffff;fill-opacity:1;stroke:none;stroke-width:0.23334058;stroke-opacity:1"
       id="rect8773-0-2"
       width="18.520834"
       height="1.8520833"
       x="1.3229064"
       y="289.85626" />
  </g>
</svg>
