<?xml version="1.0" encoding="UTF-8" standalone="no"?>
<!-- Created with Inkscape (http://www.inkscape.org/) -->

<svg
   xmlns="http://www.w3.org/2000/svg"
   width="80"
   height="80"
   viewBox="0 0 21.166666 21.166667"
   version="1.1"
   id="svg19093">
  <g
     id="layer1"
     transform="translate(0,-275.83332)">
    <rect
       style="display:inline;opacity:1;fill:#ffffff;fill-opacity:1;stroke:none;stroke-width:0.21950617;stroke-opacity:1"
       id="rect4518-85-4-5"
       width="21.166666"
       height="21.166666"
       x="-5.5511151e-17"
       y="275.83331"
       rx="10.583333"
       ry="10.583333" />
    <rect
       style="display:inline;opacity:1;fill:#925214;fill-opacity:1;stroke:none;stroke-width:0.19206792;stroke-opacity:1"
       id="rect4518-8-4-7-0"
       width="18.520834"
       height="18.520834"
       x="1.3229064"
       y="277.15622"
       rx="9.260417"
       ry="9.260417" />
    <path
       style="display:inline;opacity:1;fill:#ffffff;fill-opacity:1;stroke:none;stroke-width:0.23597811;stroke-opacity:1"
       d="m 11.416895,282.55776 c -0.841122,0 -2.1719877,2.26517 -2.1735106,2.78239 -0.00151,0.51721 1.5570476,1.67028 1.5570476,2.0176 0,0.34731 -0.03874,0.65704 -0.474943,0.65704 -0.4361956,0 -1.9590137,-3.09711 -2.4200068,-3.09709 -0.460993,10e-6 -3.6982817,3.45989 -3.2753807,4.19237 0.422901,0.73249 11.5916315,0.54493 11.9062485,0 0.314618,-0.54493 -4.278334,-6.55231 -5.119455,-6.55231 z"
       id="rect4563" />
  </g>
</svg>
