<?xml version="1.0" encoding="UTF-8" standalone="no"?>
<!-- Created with Inkscape (http://www.inkscape.org/) -->

<svg
   xmlns:dc="http://purl.org/dc/elements/1.1/"
   xmlns:cc="http://creativecommons.org/ns#"
   xmlns:rdf="http://www.w3.org/1999/02/22-rdf-syntax-ns#"
   xmlns:svg="http://www.w3.org/2000/svg"
   xmlns="http://www.w3.org/2000/svg"
   xmlns:sodipodi="http://sodipodi.sourceforge.net/DTD/sodipodi-0.dtd"
   xmlns:inkscape="http://www.inkscape.org/namespaces/inkscape"
   width="100"
   height="100"
   viewBox="0 0 26.458333 26.458334"
   version="1.1"
   id="svg8"
   inkscape:version="0.92.4 (5da689c313, 2019-01-14)"
   sodipodi:docname="icon-placeholder.svg">
  <defs
     id="defs2" />
  <sodipodi:namedview
     id="base"
     pagecolor="#ffffff"
     bordercolor="#666666"
     borderopacity="1.0"
     inkscape:pageopacity="0.0"
     inkscape:pageshadow="2"
     inkscape:zoom="3.959798"
     inkscape:cx="-52.285596"
     inkscape:cy="86.986467"
     inkscape:document-units="mm"
     inkscape:current-layer="layer1"
     showgrid="false"
     units="px"
     inkscape:pagecheckerboard="true"
     inkscape:window-width="1920"
     inkscape:window-height="1147"
     inkscape:window-x="1912"
     inkscape:window-y="-8"
     inkscape:window-maximized="1" />
  <metadata
     id="metadata5">
    <rdf:RDF>
      <cc:Work
         rdf:about="">
        <dc:format>image/svg+xml</dc:format>
        <dc:type
           rdf:resource="http://purl.org/dc/dcmitype/StillImage" />
        <dc:title></dc:title>
      </cc:Work>
    </rdf:RDF>
  </metadata>
  <g
     inkscape:label="Terrestrial"
     inkscape:groupmode="layer"
     id="layer1"
     transform="translate(0,-270.54165)"
     style="display:inline">
    <rect
       style="opacity:1;fill:#ffffff;fill-opacity:1;stroke:none;stroke-width:0.27438271;stroke-opacity:1"
       id="rect4518"
       width="26.458334"
       height="26.458334"
       x="0"
       y="270.54166"
       rx="3.4490328"
       ry="3.4490328" />
    <rect
       style="opacity:1;fill:#747474;fill-opacity:1;stroke:none;stroke-width:0.2332253;stroke-opacity:1"
       id="rect4518-8"
       width="22.489584"
       height="22.489584"
       x="1.984375"
       y="272.52603"
       rx="2.9316778"
       ry="2.9316778" />
    <g
       aria-label="?"
       style="fill:#ffffff;fill-opacity:1;stroke:none;stroke-width:0.26458332"
       id="text4520"
       transform="matrix(2.0804939,0,0,2.0804939,84.008686,-251.23622)">
      <path
         d="m -31.884534,255.35967 q 0,1.28674 -1.038697,1.88619 -0.780314,0.44442 -0.847493,0.89917 -0.0155,0.11886 -0.02584,0.23771 -0.03617,0.10852 -0.186035,0.10852 -0.521932,0 -0.749309,0.062 -0.04651,0.0155 -0.07235,0.0155 -0.186035,0 -0.186035,-0.50643 0,-0.43925 0.506429,-1.08521 0.511597,-0.65112 0.511597,-1.09037 0,-0.66663 -0.707967,-0.66663 -0.449585,0 -1.167888,0.3514 -0.222208,0 -0.222208,-1.31775 0,-0.14469 0.0155,-0.21704 0.07235,-0.34623 0.862996,-0.53743 0.573608,-0.13953 1.105876,-0.13953 0.935343,0 1.550293,0.52193 0.651123,0.55294 0.651123,1.47795 z m -1.400432,4.44417 q 0,0.39791 -0.279052,0.6873 -0.273885,0.28939 -0.671794,0.28939 -0.397908,0 -0.676961,-0.28939 -0.273885,-0.28939 -0.273885,-0.6873 0,-0.39791 0.273885,-0.67696 0.279053,-0.28422 0.676961,-0.28422 0.397909,0 0.671794,0.28422 0.279052,0.27905 0.279052,0.67696 z"
         style="fill:#ffffff;fill-opacity:1;stroke-width:0.26458332"
         id="path4522"
         inkscape:connector-curvature="0" />
    </g>
  </g>
</svg>
